<?xml version="1.0" standalone="no"?>
<svg
  width="600"
  height="600"
  viewBox="0 0 600 600"
  xmlns="http://www.w3.org/2000/svg"
>
  <g transform="translate(300,300)">
    <path d="M62.8,-97.5C92,-78.9,133.8,-79.5,151.8,-62.7C169.8,-45.9,164.1,-11.5,171.4,33.5C178.6,78.5,198.9,134.2,186.2,176.9C173.4,219.7,127.7,249.4,84.4,241C41,232.5,0.1,185.8,-47.8,169C-95.8,152.1,-150.7,165.1,-174.5,146.3C-198.4,127.6,-191.3,77,-174,39.6C-156.7,2.1,-129.3,-22.2,-109.1,-43C-89,-63.8,-76.1,-81.1,-59.1,-105.4C-42.2,-129.6,-21.1,-160.8,-2.2,-157.4C16.8,-154.1,33.5,-116.2,62.8,-97.5Z" fill="#FE840E" />
  </g>
</svg>
    