<svg id="Layer_1" data-name="Layer 1" xmlns="http://www.w3.org/2000/svg" xmlns:xlink="http://www.w3.org/1999/xlink" width="3280" height="1080" viewBox="0 0 3280 1080"><defs><style>.cls-1{fill:none;}.cls-2{clip-path:url(#clip-path);}.cls-3{fill:url(#radial-gradient);}</style><clipPath id="clip-path"><path class="cls-1" d="M1422.81,505.27l-44.47-44.47v88.95Zm-43.47-42,42.06,42-42.06,42.06Zm43.47,42.06,44.47,44.47V460.8Zm43.47,42.05-42-42.05,42-42.06Zm-43.47,46.89,44.47-44.47h-88.94Zm42.06-43.47-42.06,42-42.06-42Zm46.89,43.47-44.48-44.47h0v88.94Zm-43.48-42.06,42.06,42.06-42.06,42.06Zm43.48-46.89v89l44.47-44.48Zm1,2.42,42,42.05-42,42.06Zm43.47-46.89h-89l44.48,44.47Zm-2.42,1-42,42.06L1469.7,461.8Zm-308.88,43.48h88.94L1289.4,460.8Zm2.41-1,42.06-42.06,42.06,42.06Zm86.53-87.95h-88.94l44.47,44.47Zm-2.41,1-42.06,42.06-42.06-42.06Zm2.41,87.95,44.47-44.48-44.47-44.47h0v88.95Zm1-86.53,42.06,42.05-42.06,42.06Zm43.47-46.89-44.47,44.47h88.94Zm0,1.42,42.06,42.05h-84.12Zm0-1.42-44.47-44.47-44.47,44.47Zm-2.41-1h-84.12l42.06-42.06Zm-86.53,1-44.47-44.47v88.94h0Zm-43.47-42.06,42,42.06-42,42.06Zm132.41,397.83-44.47,44.47h88.94Zm0,1.42,42.06,42.05h-84.12Zm44.47-45.89h-88.94l44.47,44.47Zm-2.41,1-42.06,42.06-42.06-42.06Zm-86.53-1-44.47,44.47,44.47,44.47h0V683.16Zm-1,86.53-42.06-42.06,42.06-42.06Zm-43.47-131-44.47,44.47h88.94Zm0,1.41,42.06,42.06h-84.12Zm0-1.41h88.94l-44.47-44.47Zm2.41-1,42.06-42.06,42.06,42.06Zm86.53,1,44.47,44.47V594.22Zm43.47,42.06-42-42.06,42-42.06Zm312.3-308.89-44.47,44.47h88.94Zm0,1.41,42.06,42.06h-84.12Zm0-1.41,44.47-44.47h-88.94Zm0-1.42-42.06-42.05h84.12Zm88.94,1.42-44.47-44.47h0v88.94h0Zm-43.47-42.06,42.06,42.06-42.06,42.06Zm43.47-46.88-44.47,44.47h89Zm0,1.41,42.06,42.06H1781Zm0-1.42-44.47-44.47-44.47,44.47Zm-2.41-1h-84.12l42.06-42.05Zm-131-43.47v88.95l44.47-44.48Zm1,2.42,42.06,42.05L1690.64,325Zm43.47,308.88V460.8l-44.47,44.47Zm-1-2.41-42-42.06,42-42.06Zm-43.47-42.06-44.47-44.47v88.94Zm-43.47-42.06,42.06,42.06-42.06,42.06Zm87.94-2.41h0l-44.47-44.47-44.47,44.47h88.94Zm-44.47-43.06,42.06,42.06h-84.12Zm-44.47,43.06V371.86l-44.47,44.47,44.47,44.47Zm-1-2.41-42.06-42.06,42.06-42.06Zm-43.47,46.88V416.33l-44.47,44.47Zm-1-2.41-42.06-42.06,42.06-42.06Zm-43.47,46.88h88.94l-44.47-44.47Zm2.41-1,42.06-42.05,42.06,42.05Zm397.83-132.41,44.47,44.47V371.86Zm43.47,42.06-42.06-42.06,42.06-42.06ZM1912,371.86V460.8l44.47-44.47Zm1,2.41,42,42.06-42,42.06Zm87.94,86.53H1912l44.47,44.47Zm-2.41,1-42.06,42.06-42.06-42.06Zm-86.53-1-44.47,44.47L1912,549.75V460.8Zm-1,86.53-42.06-42.06,42.06-42Zm-43.47-131-44.48,44.47,44.48,44.47Zm-1,86.53-42.06-42.06,42.06-42.06Zm1-86.53L1912,371.86h-89Zm0-1.41-42-42.06h84.11Zm-44.46,312.71,44.47-44.47h-89Zm0-1.41L1781,684.16h84.11Zm0,1.41-44.47,44.47h89Zm0,1.41,42.06,42.06H1781Zm-88.94-1.41,44.47,44.47h0V683.16h0Zm43.47,42.06-42-42.06,42-42.06Zm-43.46,46.88,44.47-44.47h-88.95Zm0-1.41-42.06-42.06h84.11Zm0,1.41,44.48,44.48,44.47-44.48Zm2.42,1h84.11l-42.05,42.06Zm131,43.48V772.1l-44.47,44.47Zm-1-2.42-42.06-42.06,42.06-42.05Zm-43.47-308.88v88.94l44.47-44.47Zm1,2.41,42,42.06-42,42.06Zm43.47,42.06L1912,638.69V549.75ZM1911,636.28l-42.06-42.06L1911,552.16Zm-87.94,2.41h0l44.48,44.47L1912,638.69h-88.94Zm44.47,43.06-42.06-42.06h84.11ZM1912,638.69v88.94l44.47-44.47L1912,638.69Zm1,2.41,42,42.06-42,42.06Zm43.47-46.88v88.94l44.47-44.47Zm1,2.41,42.06,42.06-42.06,42.06Zm43.47-46.88H1912l44.47,44.47Zm-2.41,1-42.06,42-42.06-42ZM1600.7,683.16l-44.47-44.47v88.94Zm-43.47-42.06,42,42.06-42,42.06Zm87.94,86.53V638.69l-44.47,44.47Zm-1-2.41-42.06-42.06,42.06-42.06Zm-87.94-86.53h88.94l-44.47-44.47Zm2.41-1,42.06-42.06,42.06,42.06Zm86.53,1,44.47-44.47-44.47-44.48v89Zm1-86.53,42.06,42.06-42.06,42Zm43.47,131,44.47-44.47-44.47-44.47Zm1-86.53,42.06,42.06-42.06,42.06Zm-1,86.53-44.47,44.47h88.94Zm0,1.41,42.06,42.06h-84.12Zm-177.88-1.41h-89l44.48,44.47Zm-2.42,1-42,42.06-42.06-42.06Zm46.89,43.47V638.69l-44.47,44.47Zm-1-2.41-42.06-42.06,42.06-42.06Zm1,91.35h88.94L1600.7,772.1Zm2.41-1,42.06-42.05,42.06,42.05Zm-2.41-87.94-44.47,44.47h88.94Zm0,1.42,42.06,42.05h-84.12Zm-88.94-1.42v89l44.47-44.48Zm1,2.42,42,42.05-42,42.06ZM666.8,460.8l-44.47-44.47v88.95Zm-43.47-42.05,42,42.05-42,42.06ZM666.8,460.8l44.47,44.48V416.33Zm43.47,42.06L668.21,460.8l42.06-42.05ZM666.8,549.75l44.47-44.47H622.33Zm42.06-43.47L666.8,548.33l-42.06-42.05Zm46.88,43.46-44.47-44.47v89Zm-43.47-42.05,42.06,42.05L712.27,591.8Zm43.47,42.06,44.47-44.48L755.74,460.8Zm1-86.53,42.06,42-42.06,42.06Zm43.47-46.89H711.27l44.47,44.47Zm-2.41,1-42.06,42.06-42.06-42.06ZM488.91,460.8h88.95l-44.48-44.47Zm2.42-1,42.05-42.05,42.06,42.05Zm42.06-43.47,44.47-44.47H488.91Zm0-1.41-42.06-42.06h84.11Zm44.47,45.88,44.47-44.47-44.47-44.47h0V460.8Zm1-86.52,42,42.05-42,42.06Zm43.47-46.89-44.47,44.47H666.8Zm0,1.41,42.06,42.06H580.27Zm0-1.41-44.48-44.47-44.47,44.47Zm-2.42-1H535.8l42.05-42.06Zm-131-43.47v88.94l44.47-44.47Zm1,2.41L532,327.39l-42.06,42.06ZM622.33,683.16l-44.48,44.47H666.8Zm0,1.41,42,42.06H580.27Zm44.47-45.88H577.85l44.48,44.47Zm-2.42,1-42,42.06-42.06-42.06Zm-86.53-1-44.47,44.47,44.47,44.47h0V638.69Zm-1,86.53L534.8,683.16l42.05-42.06Zm-43.46-131-44.48,44.47h88.95Zm0,1.41,42.05,42.06H491.33Zm0-1.41h89l-44.47-44.47Zm2.42-1,42.06-42.06,42,42.06Zm86.53,1,44.47,44.47V549.75Zm43.47,42.06-42.06-42.06,42.06-42.06ZM978.1,327.39l-44.47,44.47h88.94Zm0,1.41,42.06,42.06H936Zm0-1.41,44.47-44.47H933.63Zm0-1.42L936,283.92h84.12Zm88.94,1.42-44.47-44.47h0v88.94h0Zm-43.47-42.06,42.06,42.06-42.06,42.06ZM1067,238.44l-44.47,44.48h88.94Zm0,1.42,42.06,42.06H1025Zm0-1.42L1022.57,194,978.1,238.44Zm-2.41-1H980.51l42.06-42.05ZM933.63,194v89l44.47-44.48Zm1,2.42,42,42.05-42,42.06ZM978.1,505.27V416.33L933.63,460.8Zm-1-2.41L935,460.8l42.06-42.06ZM933.63,460.8l-44.47-44.47v88.94Zm-43.47-42.06,42.05,42.06-42.05,42.06Zm87.94-2.41h0l-44.47-44.47-44.47,44.47H978.1Zm-44.47-43.06,42.06,42.06H891.57Zm-44.47,43.06V327.39l-44.47,44.47,44.47,44.47Zm-1-2.41L846.1,371.86l42.06-42.06Zm-43.48-42.06-44.47,44.47,44.47,44.47Zm-1,86.53-42-42.06,42-42.06Zm-43.47,46.88h88.95L844.68,460.8Zm2.42-1,42-42,42.06,42Zm397.83-132.41,44.47,44.47V327.39Zm43.47,42.06-42.06-42.06,42.06-42.06Zm-88-86.53v88.94l44.48-44.47Zm1,2.41L1199,371.86,1157,413.92Zm88,86.53h-89l44.47,44.47Zm-2.42,1-42.06,42.06-42-42.06Zm-86.53-1-44.47,44.47L1156,505.27V416.33Zm-1,86.53-42-42.06,42-42.06Zm-43.47-131L1067,416.33l44.47,44.47Zm-1,86.53-42.06-42.06,42.06-42.06Zm1-86.53L1156,327.39H1067Zm0-1.42-42.06-42.05h84.12ZM1067,683.16l44.47-44.47h-88.94Zm0-1.41L1025,639.69h84.12Zm0,1.41-44.47,44.47h88.94Zm0,1.41,42.06,42.06H1025Zm-88.94-1.41,44.47,44.47h0V638.69h0Zm43.47,42.06-42.06-42.06,42.06-42.06ZM978.1,772.1l44.47-44.47H933.63Zm0-1.41L936,728.63h84.12Zm0,1.41,44.47,44.47L1067,772.1Zm2.41,1h84.12l-42.06,42.06Zm131,43.47V727.63L1067,772.1Zm-1-2.41-42-42.06,42-42.06ZM1067,505.27v89l44.47-44.48Zm1,2.42,42.06,42.05L1068,591.8Zm43.47,42.06L1156,594.22v-89Zm43.47,42-42-42,42-42.06ZM1067,594.22h0l44.47,44.47L1156,594.22H1067Zm44.47,43-42.06-42h84.12Zm44.47-43v88.94l44.48-44.47L1156,594.22Zm1,2.41L1199,638.69,1157,680.75Zm43.48-46.89v89l44.47-44.48Zm1,2.42,42,42.05-42,42.06Zm43.47-46.89h-89l44.48,44.47Zm-2.42,1-42,42.06-42.06-42.06ZM844.69,638.69l-44.48-44.47v88.94Zm-43.48-42.06,42.06,42.06-42.06,42.06Zm87.95,86.53V594.22l-44.47,44.47Zm-1-2.41L846.1,638.69l42.06-42.06Zm-87.95-86.53h88.95l-44.47-44.48Zm2.42-1,42.06-42.06,42,42.06Zm86.53,1,44.47-44.47-44.47-44.48v89Zm1-86.53,42.05,42.06-42.05,42Zm43.47,131,44.47-44.47-44.47-44.48Zm1-86.53,42.06,42.06-42.06,42Zm-1,86.53-44.47,44.47H978.1Zm0,1.41,42.06,42.06H891.57Zm-177.89-1.41H666.8l44.47,44.47Zm-2.41,1-42.06,42.06-42.06-42.06Zm46.88,43.47V594.22l-44.47,44.47Zm-1-2.41-42.05-42.06,42.05-42.06Zm1,91.35h88.95l-44.48-44.47Zm2.42-1,42-42.05,42.06,42.05Zm-2.42-87.94-44.47,44.47h89Zm0,1.41,42.06,42.06H758.16Zm-88.94-1.41V772.1l44.47-44.47Zm1,2.41,42.06,42.06-42.06,42.06ZM2445.66,460.8v88.94l44.47-44.47Zm1,2.42,42.05,42-42.05,42.06Zm43.47,42,44.47,44.47V460.8Zm43.47,42.06-42.06-42.06,42.06-42Zm-87.94,2.41h0l44.47,44.48,44.47-44.48h-88.94Zm44.47,43.06-42.06-42.06h84.12Zm44.47-43.06v89l44.47-44.48-44.47-44.47Zm1,2.42,42.06,42.05-42.06,42.06Zm43.47,42.06,44.47-44.48-44.47-44.47Zm1-86.53,42.06,42.05-42.06,42.06Zm43.47-46.89H2534.6l44.47,44.47Zm-2.41,1-42.06,42.06L2537,461.8Zm-308.89,43.47h89l-44.48-44.47Zm2.42-1,42.05-42,42.06,42Zm42.06-43.47,44.47-44.47h-89Zm0-1.41-42.06-42.06h84.11Zm44.47-43.06v88.94h0l44.47-44.47-44.47-44.47Zm1,2.41,42,42.06-42,42.06Zm43.46-46.88-44.47,44.47h89Zm0,1.41,42.06,42.06H2403.6Zm-133.41-45.88v88.94l44.47-44.47Zm1,2.41,42.06,42.06-42.06,42.06Zm132.42,397.83-44.48,44.47h89Zm0,1.41,42.05,42.06H2403.6Zm0-1.41,44.48-44.47h-89Zm0-1.41-42.05-42.06h84.11Zm-88.94,1.41,44.47,44.47h0V683.16h0Zm43.47,42.06-42-42.06,42-42.06Zm-43.47-131-44.47,44.47h88.94Zm-42.06,43.47,42.06-42.06,42.06,42.06Zm86.54-87.94-44.48,44.47h88.95Zm0,1.41,42,42.06h-84.11Zm88.94,87.53V594.22l-44.47,44.47Zm-1-2.41-42.06-42.06,42.06-42.06Zm-354.77-86.53,44.47,44.47V549.75Zm43.47,42.06-42.06-42.06,42.06-42.06Zm-43.47-42.06-44.48-44.47v88.94Zm-43.48-42.06,42.06,42.06-42.06,42.06Zm43.47-46.89-44.47,44.48h88.95Zm-42,43.48,42-42.06,42.06,42.06Zm-2.42,1V460.8l-44.47,44.48Zm-1-2.42-42.05-42.05,42.05-42.06Zm-43.47,46.89v-89l-44.47,44.48Zm-1-2.42-42.05-42,42.05-42.06Zm-43.47,46.89h88.94l-44.47-44.47Zm2.42-1,42.05-42.06,42.06,42.06Zm308.88-43.47H2223.3l44.47,44.47Zm-2.41,1-42.06,42-42.06-42Zm-86.53,87.94h88.94l-44.47-44.47Zm2.41-1,42.06-42.06,42.06,42.06Zm-2.41-87.94-44.47,44.47,44.47,44.47h0V594.22Zm-1,86.53-42.06-42.06,42.06-42.06Zm-43.47,46.88,44.47-44.47h-89Zm0-1.41-42.06-42.06h84.11Zm0,1.41,44.47,44.47,44.47-44.47Zm2.41,1h84.12l-42.06,42.06Zm131,43.47V683.16l-44.47,44.47Zm-1-2.41-42.06-42.06,42.06-42.06ZM2134.36,416.33h88.94l-44.47-44.47Zm2.41-1,42.06-42.06,42.06,42.06Zm86.53-87.94v88.94h0l44.47-44.47Zm1,2.41,42.06,42.06-42.06,42.06Zm-1,86.53,44.47,44.47,44.47-44.47Zm86.53,1-42.06,42.06-42.06-42.06Zm-42.06,43.47h-88.94l44.47,44.47Zm-2.41,1-42.06,42.06-42.06-42.06Zm-86.53-1-44.47-44.47v88.94Zm-43.47-42.06,42,42.06-42,42.06Zm-90-91.35v88.94l44.47-44.47Zm1,2.41,42.06,42.06-42.06,42.06Z"/></clipPath><radialGradient id="radial-gradient" cx="1754.37" cy="722.59" r="135.59" gradientTransform="translate(38.8 49.57)" gradientUnits="userSpaceOnUse"><stop offset="0" stop-color="#fff"/><stop offset="0.3" stop-color="#fff" stop-opacity="0.99"/><stop offset="0.41" stop-color="#fff" stop-opacity="0.97"/><stop offset="0.49" stop-color="#fff" stop-opacity="0.92"/><stop offset="0.56" stop-color="#fff" stop-opacity="0.85"/><stop offset="0.61" stop-color="#fff" stop-opacity="0.77"/><stop offset="0.66" stop-color="#fff" stop-opacity="0.66"/><stop offset="0.7" stop-color="#fff" stop-opacity="0.54"/><stop offset="0.73" stop-color="#fff" stop-opacity="0.42"/><stop offset="0.74" stop-color="#fff" stop-opacity="0.34"/><stop offset="0.75" stop-color="#fff" stop-opacity="0.24"/><stop offset="0.75" stop-color="#fff" stop-opacity="0.15"/><stop offset="0.76" stop-color="#fff" stop-opacity="0.08"/><stop offset="0.78" stop-color="#fff" stop-opacity="0.03"/><stop offset="0.79" stop-color="#fff" stop-opacity="0.01"/><stop offset="0.84" stop-color="#fff" stop-opacity="0"/></radialGradient></defs><title>mesh-mask_experiment</title><g class="cls-2"><ellipse class="cls-3" cx="1793.18" cy="772.16" rx="140.9" ry="130.06" transform="translate(-116.9 368.05) rotate(-11.35)"/></g></svg>