<svg width="1252" height="377" viewBox="0 0 1252 377" fill="none" xmlns="http://www.w3.org/2000/svg">
<path d="M1173.78 0L1147.25 121.629C1143.06 140.273 1140.27 157.979 1136.54 183.609H1134.21C1130.49 157.979 1127.69 140.273 1123.5 121.629L1096.96 0H1013.62L1093.7 263.76V377H1171.93V263.76L1252 0H1173.78Z" fill="#FF2038"/>
<path d="M904.194 121.629C900.008 140.273 897.214 157.979 893.484 183.609H891.154C887.432 157.979 884.638 140.273 880.443 121.629L853.916 0H770.577L850.658 263.76V377H928.882V263.76L1008.95 0H930.73L904.194 121.629Z" fill="#FF2038"/>
<path d="M181.583 0H77.2872L0 377H79.1526L92.4118 291.721H163.201L176.46 377H258.871L181.583 0ZM101.975 230.206L119.657 116.501C122.451 98.7949 124.316 81.5533 126.637 57.317H128.967C131.296 81.5533 133.153 98.7949 135.947 116.501L153.629 230.206H101.975Z" fill="#FF2038"/>
<path d="M453.494 176.614V176.15C480.503 166.832 499.586 138.87 499.586 98.7949C499.586 38.2084 465.133 0 391.568 0H286.808V377H398.084C473.514 377 507.967 335.995 507.967 267.958C507.967 215.76 486.555 188.263 453.494 176.614ZM363.166 54.5208H384.588C409.731 54.5208 422.299 68.9662 422.299 105.781C422.299 142.596 409.731 157.041 384.588 157.041H363.166V54.5208ZM391.104 322.479H363.166V209.704H391.104C416.711 209.704 428.35 226.016 428.35 266.091C428.35 306.167 416.711 322.479 391.104 322.479Z" fill="#FF2038"/>
<path d="M713.302 176.614V176.15C740.31 166.832 759.394 138.87 759.394 98.7949C759.394 38.2084 724.941 0 651.375 0H546.615V377H657.891C733.322 377 767.775 335.995 767.775 267.958C767.775 215.76 746.362 188.263 713.302 176.614ZM622.974 54.5208H644.396C669.539 54.5208 682.106 68.9662 682.106 105.781C682.106 142.596 669.539 157.041 644.396 157.041H622.974V54.5208ZM650.911 322.479H622.974V209.704H650.911C676.519 209.704 688.158 226.016 688.158 266.091C688.158 306.167 676.519 322.479 650.911 322.479Z" fill="#FF2038"/>
</svg>
