<svg width="1264" height="372" viewBox="0 0 1264 372" fill="none" xmlns="http://www.w3.org/2000/svg">
<g clip-path="url(#clip0_785_5843)">
<path d="M289.219 0H167.951L205.435 116.347H326.703L228.596 185.742L266.056 302.769C329.219 256.942 349.866 187.57 326.703 116.347L289.219 0ZM9.19878 116.347H130.491L167.951 0H46.6823L9.19878 116.347C-13.9403 187.57 6.68259 256.919 69.8448 302.769L107.328 185.742L9.19878 116.347ZM69.8448 302.769L167.951 372L266.056 302.769L167.951 232.482L69.8448 302.769ZM985.038 113.488C956.326 113.488 938.007 126.468 929.447 147.554H927.283V51.7305H884.227V302.183H928.248V193.45C928.248 166.554 945.014 151.044 968.625 151.044C991.716 151.044 1005.35 165.687 1005.35 190.873V302.205H1049.35V183.517C1049.35 138.58 1023.84 113.488 985.038 113.488ZM1168.46 51.3088C1108.87 51.3088 1073.03 97.7677 1072.92 178.479C1072.8 259.192 1108.63 306.493 1168.46 306.493C1228.28 306.493 1264 259.636 1264 178.479C1263.91 97.8849 1227.95 51.3088 1168.36 51.3088H1168.46ZM1118.32 178.479C1118.44 119.603 1137.7 88.6071 1168.46 88.6071C1189.48 88.6071 1205.1 102.992 1212.97 130.779L1119.12 198.722C1118.49 192.349 1118.2 185.625 1118.23 178.479H1118.32ZM1168.46 268.727C1146.73 268.727 1130.72 253.428 1123.17 223.697L1217.53 155.402C1218.32 163.07 1218.71 170.772 1218.71 178.479C1218.61 237.966 1199.36 268.727 1168.36 268.727H1168.46ZM686.111 223.907C686.111 252.257 665.817 266.313 646.346 266.313C625.183 266.313 611.072 251.413 611.072 227.772V116.136H567.076V234.638C567.076 279.339 592.591 304.666 629.321 304.666C657.305 304.666 676.987 290.001 685.499 269.148H687.45V302.23H730.132V116.136H686.111V223.907ZM467.559 113.324C428.289 113.324 398.142 130.755 388.406 164.68L429.488 170.49C433.863 157.768 446.255 146.874 467.772 146.874C488.207 146.874 499.399 157.3 499.399 175.574V176.301C499.399 188.905 486.137 189.514 453.191 193.029C416.979 196.894 382.458 207.672 382.458 249.679C382.458 286.274 409.311 305.649 444.938 305.649C474.237 305.649 491.757 291.967 499.775 276.341H501.233V301.9H543.561V177.285C543.42 128.108 503.184 113.324 467.559 113.324ZM499.54 235.153C499.54 255.864 482.75 273.436 456.249 273.436C437.906 273.436 424.761 265.072 424.761 248.952C424.761 232.13 439.481 225.103 459.165 222.315C470.711 220.745 493.825 217.816 499.54 213.223V235.153ZM824.052 69.7236H780.101V116.136H753.364V150.998H780.101V254.084C779.843 289.087 805.381 306.305 838.468 305.322C846.037 305.167 853.558 304.063 860.854 302.042V267.321C857.514 267.766 849.707 268.774 844.064 268.891C832.988 269.148 824.122 265.025 824.122 247.337V151.091H860.97V116.136H824.122L824.052 69.7236Z" fill="#635DFF"/>
</g>
<defs>
<clipPath id="clip0_785_5843">
<rect width="1264" height="372" fill="white"/>
</clipPath>
</defs>
</svg>
