<svg width="1278" height="470" viewBox="0 0 1278 470" fill="none" xmlns="http://www.w3.org/2000/svg">
<path d="M241.269 209.494L241.504 295.329C241.504 317.141 252.061 327.929 272.942 327.929H282.092C302.973 327.929 313.531 317.141 313.531 295.329V253.114H361.628V293.219C361.628 348.333 334.881 376.476 281.858 376.476H271.3C218.277 376.476 191.53 348.567 191.53 299.785V89.8851C191.53 28.2018 218.277 0.292969 271.3 0.292969H281.858C334.881 0.292969 361.628 28.2018 361.628 83.3159L361.393 209.26H241.269V209.494ZM241.034 159.538H311.889V81.4421C311.889 59.6286 301.566 48.6081 280.45 48.6081H272.473C251.592 48.6081 241.034 59.6286 241.034 81.4421V159.538Z" fill="#4C4D4E"/>
<path d="M393.77 4.51491H443.509V28.4368C455.24 15.5377 475.417 0.530273 504.275 0.530273C546.74 0.530273 567.621 29.8463 567.621 73.4686V303.773C567.621 347.395 546.74 376.711 504.275 376.711C475.417 376.711 455.24 362.405 443.509 350.21V468.881H393.77V4.51491ZM443.509 308.229C457.117 320.424 472.836 327.226 489.259 327.226C507.559 327.226 518.117 318.314 518.117 297.209V79.0972C518.117 57.9897 507.559 49.0753 489.259 49.0753C472.836 49.0753 457.117 55.8789 443.509 68.0721V308.229Z" fill="#4C4D4E"/>
<path d="M597.652 244.203C597.652 198.47 611.964 180.179 649.972 166.574L716.603 142.654V81.4425C716.603 59.6291 706.045 48.1372 685.164 48.1372H677.187C656.306 48.1372 645.749 59.6291 645.749 81.4425V133.505H597.417V83.5509C597.417 28.4368 624.164 0.530273 677.187 0.530273H686.572C739.595 0.530273 766.342 28.4368 766.342 83.5509V372.49H716.603V349.271C702.995 362.874 684.46 376.477 655.837 376.477C615.952 376.477 597.652 352.555 597.652 311.747V244.203ZM716.603 310.34V189.089L671.557 206.915C653.256 214.418 647.391 224.033 647.391 245.141V300.959C647.391 318.783 655.837 327.46 671.557 327.46C686.572 327.46 700.414 322.066 716.603 310.34Z" fill="#4C4D4E"/>
<path d="M967.174 372.489H917.435V76.0456C917.435 57.7524 908.989 49.5439 893.974 49.5439C880.366 49.5439 865.819 54.938 848.223 67.8371V372.489H798.484V4.51448H848.223V28.4364C862.769 14.1301 881.539 0.292969 908.989 0.292969C934.562 0.292969 951.455 11.3181 960.605 30.3126C978.436 14.6015 999.317 0.292969 1027.94 0.292969C1066.42 0.292969 1086.12 24.9184 1086.12 65.0251V372.255H1036.39V76.0456C1036.39 57.7524 1027.94 49.5439 1012.92 49.5439C999.317 49.5439 984.77 54.938 967.174 67.8371V372.489Z" fill="#4C4D4E"/>
<path d="M0.317383 164.934V214.652L127.947 339.655V270.47L44.423 189.088L127.947 106.068V38.2891L0.317383 164.934Z" fill="#02ABCD"/>
<path d="M1149.24 106.068L1232.76 189.088L1149.24 270.704V339.655L1276.87 214.652V164.934L1149.24 38.2891V106.068Z" fill="#02ABCD"/>
</svg>
