<svg width="1275" height="217" viewBox="0 0 1275 217" fill="none" xmlns="http://www.w3.org/2000/svg">
<g clip-path="url(#clip0_613_5327)">
<path d="M687.55 123.835L736.806 60.465L739.518 56.7796L742.199 53.0942H716.293L715.545 54.0624C715.362 54.3338 715.165 54.5945 714.953 54.8432L671.651 109.093L629.441 54.8432L628.101 53.0942H602.974L605.655 56.7796L608.367 60.465L657.436 124.397L606.248 190.671L603.38 194.357L600.262 198.229H626.542L672.368 139.138L716.48 196.293L717.821 198.229H744.88L687.55 123.835Z" fill="#0082CA"/>
<path d="M1275 0.21875H1253.52V201.322H1275V0.21875Z" fill="#0082CA"/>
<path d="M891.805 197.636L891.618 52.3138H870.513V71.7088C859.927 60.6528 846.279 53.0258 831.327 49.8107C816.376 46.5956 800.806 47.9396 786.624 53.6696C772.441 59.3996 760.297 69.253 751.754 81.9603C743.212 94.6675 738.664 109.646 738.695 124.967C738.727 140.287 743.337 155.247 751.932 167.919C760.526 180.59 772.711 190.394 786.917 196.065C801.123 201.736 816.698 203.016 831.636 199.739C846.574 196.462 860.191 188.779 870.731 177.679V197.636H891.805ZM815.677 180.209C804.711 180.308 793.963 177.14 784.797 171.108C775.631 165.075 768.461 156.451 764.197 146.328C759.934 136.206 758.768 125.042 760.849 114.255C762.93 103.468 768.164 93.5431 775.885 85.7413C783.607 77.9395 793.468 72.6123 804.217 70.4359C814.967 68.2596 826.119 69.3324 836.259 73.518C846.398 77.7035 855.068 84.8132 861.167 93.9444C867.266 103.076 870.519 113.816 870.513 124.803C870.571 139.434 864.827 153.49 854.544 163.879C844.261 174.269 830.281 180.143 815.677 180.209Z" fill="#0082CA"/>
<path d="M1064.6 197.636L1064.42 0H1043.31V71.8336C1032.73 60.7776 1019.08 53.1506 1004.13 49.9355C989.175 46.7203 973.605 48.0644 959.423 53.7944C945.241 59.5244 933.096 69.3778 924.554 82.085C916.012 94.7923 911.463 109.771 911.495 125.091C911.526 140.412 916.136 155.372 924.731 168.043C933.325 180.715 945.51 190.518 959.716 196.19C973.922 201.861 989.497 203.141 1004.44 199.864C1019.37 196.587 1032.99 188.904 1043.53 177.804V197.761L1064.6 197.636ZM988.476 180.209C977.51 180.308 966.762 177.14 957.596 171.108C948.43 165.075 941.261 156.45 936.997 146.328C932.733 136.205 931.568 125.042 933.648 114.255C935.729 103.467 940.963 93.543 948.684 85.7412C956.406 77.9394 966.267 72.6121 977.017 70.4358C987.766 68.2595 998.918 69.3322 1009.06 73.5178C1019.2 77.7034 1027.87 84.8131 1033.97 93.9442C1040.06 103.075 1043.32 113.816 1043.31 124.803C1043.37 139.434 1037.63 153.49 1027.34 163.879C1017.06 174.269 1003.08 180.143 988.476 180.209Z" fill="#0082CA"/>
<path d="M583.241 130.206C582.15 143.705 576.151 156.333 566.382 165.695C556.613 175.056 543.754 180.498 530.245 180.99C521.216 181.264 512.261 179.281 504.189 175.218C496.117 171.156 489.183 165.143 484.013 157.722L580.467 107.751L599.452 97.85C592.485 79.9799 579.079 65.3788 561.885 56.9332C544.691 48.4877 524.96 46.8125 506.592 52.2387C488.225 57.665 472.558 69.7978 462.689 86.2385C452.82 102.679 449.467 122.231 453.293 141.029C457.119 159.827 467.845 176.503 483.352 187.76C498.858 199.017 518.016 204.036 537.038 201.824C556.059 199.612 573.561 190.331 586.081 175.815C598.602 161.299 605.231 142.605 604.658 123.429C604.658 122.086 604.44 120.712 604.44 119.369L583.241 130.206ZM473.726 127.083C473.255 112.447 478.607 98.2227 488.604 87.5394C498.601 76.8561 512.424 70.5888 527.034 70.116C535.127 69.8719 543.172 71.4514 550.575 74.738C557.977 78.0246 564.549 82.9343 569.805 89.1051L474.941 138.171C474.245 134.523 473.839 130.826 473.726 127.114V127.083Z" fill="#0082CA"/>
<path d="M1214.58 129.457C1213.49 142.953 1207.49 155.577 1197.72 164.933C1187.95 174.289 1175.09 179.725 1161.59 180.209C1152.56 180.483 1143.6 178.5 1135.53 174.437C1127.46 170.375 1120.53 164.362 1115.36 156.941L1211.84 106.97L1230.83 97.1005C1223.98 79.0372 1210.62 64.2058 1193.38 55.5414C1176.15 46.877 1156.29 45.0109 1137.75 50.3125C1119.2 55.614 1103.32 67.6968 1093.24 84.1698C1083.16 100.643 1079.63 120.306 1083.33 139.267C1087.03 158.228 1097.7 175.107 1113.23 186.561C1128.76 198.016 1148.02 203.213 1167.19 201.124C1186.36 199.035 1204.05 189.811 1216.76 175.278C1229.47 160.746 1236.27 141.964 1235.81 122.648C1235.81 121.305 1235.63 119.962 1235.63 118.588L1214.58 129.457ZM1105.29 126.521C1105.05 119.275 1106.25 112.055 1108.8 105.272C1111.35 98.4886 1115.22 92.2759 1120.17 86.9886C1125.12 81.7012 1131.06 77.4429 1137.65 74.4567C1144.25 71.4706 1151.36 69.8152 1158.59 69.5851C1166.68 69.3414 1174.71 70.9214 1182.11 74.2083C1189.5 77.4952 1196.06 82.4048 1201.3 88.5741L1106.56 137.577C1105.76 133.946 1105.33 130.241 1105.29 126.521Z" fill="#0082CA"/>
<path d="M377.646 61.8394L348.841 78.8296C352.356 85.026 354.393 91.9523 354.795 99.0679V100.848C354.74 107.102 353.37 113.275 350.774 118.963C334.657 154.036 273.181 180.302 199.765 180.302C190.912 180.302 182.214 179.99 173.703 179.178C147.836 177.195 122.451 171.079 98.511 161.063L342.544 33.9492C306.163 13.055 255.256 0 198.487 0C88.8781 0 0 48.6282 0 108.531C0 134.454 16.5848 158.284 44.4235 176.867C46.8551 178.522 49.4114 179.99 51.9988 181.614C55.1163 183.582 58.4519 185.362 61.8188 187.173C73.576 193.145 85.7943 198.159 98.3551 202.165C104.808 204.289 111.573 206.1 118.494 207.724L122.359 208.692C147.342 214.329 172.879 217.126 198.487 217.031C218.886 217.08 239.249 215.324 259.339 211.784C296.749 205.288 329.357 192.701 353.486 176.242C353.95 175.948 354.388 175.613 354.795 175.243C363.194 169.51 370.867 162.777 377.646 155.192C380.047 152.412 382.135 149.633 384.255 146.853C389.28 139.803 392.988 131.898 395.197 123.523C396.477 118.628 397.126 113.59 397.13 108.531C397.162 107.331 397.099 106.13 396.943 104.94C396.943 102.972 396.631 100.848 396.32 98.8806C396.008 96.9129 395.665 95.2889 395.197 93.5086C392.959 85.0953 389.255 77.1443 384.255 70.0222C381.979 67.2425 379.891 64.4629 377.646 61.8394ZM61.8188 137.233C50.7207 126.302 44.4235 113.903 44.4235 100.692V98.8806C46.3563 55.8116 114.94 21.0504 199.454 21.0504C227.666 20.8898 255.732 25.1039 282.658 33.5432V33.7306L61.8188 137.233Z" fill="#0082CA"/>
</g>
<defs>
<clipPath id="clip0_613_5327">
<rect width="1275" height="217" fill="white"/>
</clipPath>
</defs>
</svg>
