<svg width="1387" height="280" viewBox="0 0 1387 280" fill="none" xmlns="http://www.w3.org/2000/svg">
<path d="M1352.83 72.1076H1345.92V69.46H1362.72V72.1076H1355.82V90.3827H1352.83V72.1076Z" fill="#4E5054"/>
<path d="M1374.61 90.3827L1368.75 72.2002V90.3827H1365.76V69.46H1370.77L1376.19 86.8481L1381.61 69.46H1386.62V90.3827H1383.62V72.2002L1377.76 90.3827H1374.61Z" fill="#4E5054"/>
<path d="M140.443 0.0458984C124.16 0.0458984 111.041 13.6216 111.803 30.0765C112.478 44.7642 124.399 56.6917 139.093 57.3668C139.543 57.3867 139.993 57.3933 140.443 57.3933C156.283 57.3933 169.117 44.559 169.117 28.7196C169.117 12.8802 156.283 0.0458984 140.443 0.0458984ZM140.443 16.2758C147.307 16.2758 152.887 21.8623 152.887 28.7196C152.887 35.5836 147.307 41.1634 140.443 41.1634C140.245 41.1634 140.039 41.1568 139.834 41.1502C133.5 40.8589 128.304 35.663 128.013 29.3286C127.854 25.88 129.072 22.6102 131.441 20.1281C133.817 17.6459 137.014 16.2758 140.443 16.2758Z" fill="#F0522A"/>
<path d="M121.347 181.223H90.0456C63.662 181.223 42.2759 202.609 42.2759 228.992C42.2759 255.369 63.662 276.762 90.0456 276.762H121.347C147.731 276.762 169.117 255.369 169.117 228.992C169.117 202.609 147.731 181.223 121.347 181.223ZM121.347 200.1C137.286 200.1 150.246 213.06 150.246 228.992C150.246 244.924 137.286 257.884 121.347 257.884H90.0456C74.1135 257.884 61.1534 244.924 61.1534 228.992C61.1534 213.06 74.1135 200.1 90.0456 200.1H121.347Z" fill="#F0522A"/>
<path d="M121.347 69.46H47.7631C21.3795 69.46 0 90.8461 0 117.23C0 143.607 21.3795 164.993 47.7631 164.993H121.347C147.731 164.993 169.117 143.607 169.117 117.23C169.117 90.8461 147.731 69.46 121.347 69.46ZM121.347 88.3375C137.286 88.3375 150.246 101.298 150.246 117.23C150.246 133.155 137.286 146.115 121.347 146.115H47.7631C31.831 146.115 18.8709 133.155 18.8709 117.23C18.8709 101.298 31.831 88.3375 47.7631 88.3375H121.347Z" fill="#F0522A"/>
<path d="M424.877 276.762V69.46H541.65V89.9261H445.628V161.723H531.814V181.904H445.628V256.296H541.65V276.762H424.877Z" fill="#4E5054"/>
<path d="M768.505 276.762V69.46H885.279V89.9261H789.263V161.723H875.443V181.904H789.263V256.296H885.279V276.762H768.505Z" fill="#4E5054"/>
<path d="M1117.85 276.762V190.827L1047.83 69.46H1071.06L1128.36 168.832L1185.39 69.46H1208.63L1138.6 190.827V276.762H1117.85Z" fill="#4E5054"/>
<path d="M726.024 276.762V69.46H705.273V238.875L602.612 69.46H581.861V276.762H602.612V107.341L705.273 276.762H726.024Z" fill="#4E5054"/>
<path d="M315.246 187.683H364.922V204.138C364.922 244.732 339.253 259.188 315.232 259.188C291.212 259.188 265.55 244.732 265.55 204.138V142.097C265.55 101.496 291.218 87.0335 315.252 87.0335C341.55 87.0335 359.885 103.21 364.048 129.521H384.891C380.079 91.1638 353.153 66.5674 315.246 66.5674C273.109 66.5674 244.792 96.8495 244.792 141.932V204.297C244.792 249.372 273.102 279.648 315.232 279.648C357.369 279.648 385.672 249.372 385.672 204.297V167.508H315.246V187.683Z" fill="#4E5054"/>
<path d="M931.427 214.073C933.214 241.853 951.668 259.188 977.787 259.188C1004.02 259.188 1018.46 246.288 1018.46 222.856C1018.46 205.673 1008.15 193.031 990.171 188.173L955.176 178.628C929.428 171.691 914.058 150.808 914.058 122.783C914.058 89.1582 938.039 66.5674 973.742 66.5674C1014.6 66.5674 1032.56 94.9962 1036.5 123.471H1015.76C1011.06 99.656 996.002 87.0335 973.742 87.0335C950.086 87.0335 934.802 101.066 934.802 122.783C934.802 140.774 944.585 153.727 961.649 158.334L997.796 168.17C1017.82 173.505 1039.22 190.675 1039.22 222.856C1039.22 257.891 1015.68 279.648 977.787 279.648C930.666 279.648 911.523 243.713 910.683 214.073H931.427Z" fill="#4E5054"/>
<path d="M1238.13 214.073C1239.92 241.853 1258.37 259.188 1284.5 259.188C1310.73 259.188 1325.17 246.288 1325.17 222.856C1325.17 205.673 1314.86 193.031 1296.88 188.173L1261.88 178.628C1236.13 171.691 1220.77 150.808 1220.77 122.783C1220.77 89.1582 1244.75 66.5674 1280.45 66.5674C1321.3 66.5674 1339.27 94.9962 1343.2 123.471H1322.47C1317.77 99.656 1302.72 87.0335 1280.45 87.0335C1256.79 87.0335 1241.51 101.066 1241.51 122.783C1241.51 140.774 1251.3 153.727 1268.36 158.334L1304.51 168.17C1324.53 173.505 1345.93 190.675 1345.93 222.856C1345.93 257.891 1322.39 279.648 1284.5 279.648C1237.37 279.648 1218.24 243.713 1217.39 214.073H1238.13Z" fill="#4E5054"/>
</svg>
