<svg width="1269" height="374" viewBox="0 0 1269 374" fill="none" xmlns="http://www.w3.org/2000/svg">
<path d="M364.094 128.222C375.026 94.9824 368.45 28.6706 347.266 4.18935C344.49 0.97802 339.324 1.43678 337.017 4.98174L310.925 44.9777C304.475 52.9848 292.859 54.8201 284.103 49.2315C255.788 31.1313 221.966 20.6214 185.623 20.6214C149.28 20.6214 115.457 31.1313 87.1424 49.2315C78.4299 54.8201 66.8139 52.9434 60.3224 44.9777L34.229 4.98174C31.9229 1.43678 26.7553 1.01973 23.9795 4.18935C2.79711 28.7122 -3.77967 95.0242 7.15315 128.222C10.7832 139.274 11.7655 150.951 9.63015 162.295C7.4948 173.556 5.35949 187.152 5.35949 196.619C5.35949 293.835 86.0746 372.616 185.58 372.616C285.129 372.616 365.8 293.794 365.8 196.619C365.8 187.152 363.666 173.556 361.531 162.295C359.438 150.951 360.462 139.274 364.094 128.222ZM185.58 333.331C108.624 333.331 46.0588 272.19 46.0588 197.036C46.0588 194.575 46.1439 192.156 46.2721 189.737C49.0483 138.523 80.9069 94.774 125.962 73.9213C144.027 65.4965 164.27 60.8255 185.623 60.8255C206.976 60.8255 227.176 65.4965 245.284 73.9627C290.339 94.8158 322.197 138.606 324.973 189.779C325.102 192.198 325.187 194.659 325.187 197.078C325.144 272.19 262.537 333.331 185.58 333.331Z" fill="#1EB4D4"/>
<path d="M246.051 249.501L210.391 189.111L179.814 138.772C179.088 137.563 177.764 136.854 176.355 136.854H147.143C145.691 136.854 144.367 137.604 143.641 138.856C142.915 140.065 142.958 141.566 143.684 142.776L172.938 190.779L133.691 249.251C132.879 250.461 132.837 252.003 133.52 253.254C134.203 254.505 135.57 255.298 137.064 255.298H166.489C167.856 255.298 169.137 254.631 169.863 253.504L191.088 221.141L210.135 253.38C210.861 254.59 212.185 255.34 213.595 255.34H242.592C244.043 255.34 245.368 254.59 246.051 253.38C246.778 252.212 246.778 250.711 246.051 249.501Z" fill="#1EB4D4"/>
<path d="M532.018 95.8623H569.215V295.047H532.018V210.177H489.994V295.091H452.797V95.8623H489.994V182.36H532.018V95.8623Z" fill="#1B2738"/>
<path d="M683.969 295.086L676.194 253.715H631.57L624.437 295.086H587.24L628.28 95.9004H678.372L721.38 295.086H683.969ZM636.437 226.23H671.029L653.263 130.891L636.437 226.23Z" fill="#1B2738"/>
<path d="M804.23 258.76V216.138C804.23 212.759 803.593 210.507 802.311 209.339C801.028 208.172 798.637 207.588 795.178 207.588H769.001C746.791 207.588 735.69 197.078 735.69 176.017V127.138C735.69 106.285 747.303 95.9004 770.577 95.9004H806.153C829.427 95.9004 841.044 106.327 841.044 127.138V154.914H803.549V132.184C803.549 128.806 802.907 126.554 801.629 125.386C800.347 124.218 797.956 123.635 794.496 123.635H782.198C778.525 123.635 776.045 124.218 774.767 125.386C773.484 126.554 772.843 128.806 772.843 132.184V172.263C772.843 175.642 773.484 177.894 774.767 179.061C776.045 180.229 778.525 180.813 782.198 180.813H807.734C830.367 180.813 841.685 191.114 841.685 211.758V263.85C841.685 284.702 829.944 295.086 806.452 295.086H771.521C748.033 295.086 736.287 284.66 736.287 263.85V236.365H773.44V258.76C773.44 262.138 774.081 264.391 775.363 265.56C776.646 266.725 779.121 267.311 782.795 267.311H795.093C798.553 267.311 800.899 266.725 802.226 265.56C803.549 264.391 804.23 262.138 804.23 258.76Z" fill="#1B2738"/>
<path d="M940.93 95.8623H978.083V263.811C978.083 284.662 966.341 295.047 942.854 295.047H903.434C879.947 295.047 868.201 284.621 868.201 263.811V95.8623H905.398V258.764C905.398 262.142 906.039 264.394 907.322 265.562C908.599 266.73 910.995 267.313 914.455 267.313H931.575C935.248 267.313 937.729 266.73 939.007 265.562C940.289 264.394 940.93 262.142 940.93 258.764V95.8623Z" fill="#1B2738"/>
<path d="M1045.99 217.434V295.091H1008.83V95.8623H1083.82C1107.31 95.8623 1119.05 106.288 1119.05 127.1V186.155C1119.05 203.421 1111.2 213.514 1095.44 216.475L1129.39 295.091H1089.29L1058.24 217.434H1045.99ZM1045.99 123.638V190.576H1072.8C1076.26 190.576 1078.61 189.992 1079.94 188.824C1081.22 187.656 1081.86 185.404 1081.86 182.026V132.188C1081.86 128.809 1081.22 126.557 1079.94 125.39C1078.65 124.222 1076.26 123.638 1072.8 123.638H1045.99Z" fill="#1B2738"/>
<path d="M1231.55 295.086L1223.77 253.715H1179.15L1172.01 295.086H1134.86L1175.9 95.9004H1226L1269 295.086H1231.55ZM1184.06 226.23H1218.65L1200.88 130.891L1184.06 226.23Z" fill="#1B2738"/>
</svg>
