<svg width="892" height="232" viewBox="0 0 892 232" fill="none" xmlns="http://www.w3.org/2000/svg">
<g clip-path="url(#clip0_790_5953)">
<path d="M233.389 174.734V0.25H260.494V69.0391C269.028 56.3228 281.826 49.9624 298.892 49.9593C313.448 49.9593 324.699 54.2691 332.647 62.8888C340.595 71.5085 344.568 83.5172 344.568 98.9149V174.734H317.464V102.682C317.464 82.7672 308.597 72.8086 290.862 72.8068C281.991 72.8068 274.713 75.4846 269.027 80.8412C263.34 86.1973 260.496 93.7283 260.494 103.435V174.736L233.389 174.734Z" fill="#323232"/>
<path d="M472.635 159.671C460.589 171.721 445.449 177.746 427.212 177.746C408.974 177.746 393.79 171.721 381.66 159.671C369.527 147.621 363.461 132.307 363.461 113.727C363.461 95.1472 369.526 79.8749 381.656 67.9095C393.786 55.9459 408.97 49.9626 427.208 49.959C445.446 49.9559 460.589 55.9392 472.631 67.9095C484.682 79.8781 490.703 95.1504 490.703 113.727C490.703 132.302 484.682 147.618 472.635 159.671ZM401.486 144.358C407.926 151.891 416.501 155.656 427.212 155.656C437.922 155.656 446.495 151.889 452.936 144.358C459.371 136.827 462.596 126.617 462.596 113.73C462.596 101.012 459.336 90.8869 452.811 83.3532C446.286 75.8194 437.753 72.053 427.212 72.0543C416.503 72.0543 407.928 75.7784 401.486 83.2265C395.047 90.6746 391.826 100.842 391.825 113.73C391.825 126.619 395.046 136.829 401.486 144.358Z" fill="#323232"/>
<path d="M553.446 177.747C528.515 177.747 516.049 164.357 516.054 137.577V75.8133H497.232V52.9649H516.807L523.078 17.0645H543.407V52.9649H591.842V75.8133H543.407V136.82C543.407 148.034 547.506 153.641 555.703 153.641C563.397 153.641 570.341 146.612 576.536 132.552L597.618 143.348C587.24 166.283 572.517 177.748 553.446 177.747Z" fill="#323232"/>
<path d="M606.324 230.468C594.277 230.468 584.323 227.121 576.455 220.425L586.499 199.087C591.351 204.774 596.623 207.619 602.31 207.619C609.838 207.619 613.602 202.765 613.602 193.058V52.9718H640.706V193.563C640.706 206.619 637.486 216.033 631.041 221.804C624.601 227.577 616.359 230.464 606.324 230.468ZM627.152 32.3839C622.696 32.5352 618.366 30.9098 615.105 27.8653C613.54 26.388 612.305 24.5946 611.484 22.6038C610.659 20.6131 610.271 18.4703 610.338 16.3175C610.28 14.1471 610.672 11.9879 611.493 9.97772C612.313 7.96771 613.544 6.15088 615.105 4.64328C618.384 1.6553 622.656 -0.000976562 627.089 -0.000976562C631.523 -0.000976562 635.8 1.6553 639.073 4.64328C640.67 6.13205 641.928 7.94245 642.775 9.95487C643.618 11.9674 644.024 14.136 643.971 16.3175C644.006 18.4595 643.591 20.5855 642.748 22.5547C641.906 24.5238 640.652 26.2912 639.073 27.7398C637.49 29.2608 635.621 30.454 633.579 31.2512C631.532 32.0483 629.351 32.4336 627.156 32.3849L627.152 32.3839Z" fill="#323232"/>
<path d="M708.016 177.747C694.128 177.747 682.875 174.273 674.263 167.327C665.646 160.38 661.338 151.051 661.333 139.335C661.333 128.625 665.811 119.545 674.767 112.095C683.718 104.645 694.971 100.921 708.52 100.922C722.409 100.922 734.121 105.359 743.656 114.23V99.4162C743.656 90.7162 741.44 83.9798 737.006 79.2068C732.573 74.4338 726.258 72.0478 718.06 72.0483C701.496 72.0483 691.207 80.5006 687.188 97.4054L662.341 92.1323C665.686 79.0783 672.296 68.7855 682.171 61.254C692.045 53.722 704.341 49.9561 719.064 49.9561C735.124 49.9561 747.8 54.182 757.085 62.6344C766.367 71.0868 771.009 83.4301 771.014 99.6647V174.731H744.66V159.419C735.789 171.638 723.573 177.748 708.016 177.747ZM713.034 157.662C725.08 157.662 735.289 151.636 743.652 139.586V135.82C735.289 125.777 725.08 120.756 713.034 120.757C706.009 120.757 700.318 122.473 695.97 125.904C693.909 127.421 692.246 129.41 691.108 131.702C689.976 133.995 689.4 136.526 689.445 139.083C689.378 141.669 689.922 144.233 691.033 146.568C692.148 148.902 693.793 150.941 695.845 152.517C700.113 155.95 705.844 157.663 713.034 157.662Z" fill="#323232"/>
<path d="M797.386 174.735V52.972H823.735V74.055C830.425 58.6596 841.972 50.9608 858.372 50.959C868.068 50.959 876.1 54.1387 882.46 60.4991C888.825 66.8595 892.005 75.3953 892 86.1061C891.933 92.5169 890.832 98.8746 888.736 104.933L863.889 102.424C864.402 99.0972 864.736 95.7452 864.892 92.383C864.892 79.8309 859.705 73.5553 849.336 73.5553C842.307 73.5553 836.411 77.2794 831.643 84.727C826.875 92.1756 824.489 102.008 824.485 114.227V174.731L797.386 174.735Z" fill="#323232"/>
<path d="M64.1274 71.6027C84.3209 60.3774 111.988 45.0043 111.988 0.25H78.4944C78.4944 25.289 66.3083 32.0611 47.8635 42.3125C27.6699 53.5366 0.00341797 68.9097 0.00341797 113.664H33.4995C33.4995 88.6252 45.6826 81.854 64.1274 71.6027Z" fill="#FF3C00"/>
<path d="M122.096 61.3193C122.096 86.3584 109.911 93.1297 91.4662 103.381C71.2722 114.606 43.606 129.979 43.606 174.734H77.1019C77.1019 149.694 89.288 142.923 107.733 132.671C127.927 121.447 155.593 106.073 155.593 61.3193H122.096Z" fill="#FF3C00"/>
</g>
<defs>
<clipPath id="clip0_790_5953">
<rect width="892" height="232" fill="white"/>
</clipPath>
</defs>
</svg>
