<svg width="1224" height="244" viewBox="0 0 1224 244" fill="none" xmlns="http://www.w3.org/2000/svg">
<g clip-path="url(#clip0_793_5963)">
<path d="M1134.39 155.517C1122.58 131.385 1111.85 89.5562 1086.09 60.0617C1066.24 37.0023 1026.53 44.51 1021.16 64.3518C1021.16 64.3518 1000.77 58.9891 983.6 59.5254C966.429 60.0617 957.307 62.2067 957.307 62.2067L955.697 65.9606C955.697 65.9606 979.307 60.5979 1000.24 65.4243C1017.41 69.1781 1026.53 76.1496 1032.43 89.0199C1038.33 101.89 1044.77 145.328 1073.75 168.923C1102.19 192.519 1157.46 193.591 1157.46 193.591C1157.46 193.591 1143.51 174.822 1134.39 155.517ZM1054.43 74.5408C1051.75 75.077 1048.53 73.4682 1047.99 70.7869C1047.46 68.1056 1049.07 64.888 1051.75 64.3518C1054.43 63.8155 1057.65 65.4243 1058.19 68.1056C1059.26 70.7869 1057.65 73.4682 1054.43 74.5408Z" fill="#0FA69D"/>
<g opacity="0.6">
<path opacity="0.6" d="M1161.75 0L1156.39 9.65275C1187.51 47.1912 1206.83 91.7011 1213.27 137.82L1224 139.965C1217.56 89.0198 1196.63 40.2198 1161.75 0Z" fill="#0FA69D"/>
<path opacity="0.6" d="M1144.58 30.5674L1138.68 40.7564C1159.07 68.1058 1172.49 99.2092 1178.93 131.921L1190.19 134.066C1183.75 96.5278 1168.19 61.1344 1144.58 30.5674Z" fill="#0FA69D"/>
<path opacity="0.6" d="M1127.95 59.5254L1122.04 70.2507C1133.31 87.4111 1141.36 106.18 1146.19 125.486L1158 127.631C1152.09 103.499 1141.9 80.4397 1127.95 59.5254Z" fill="#0FA69D"/>
</g>
<path d="M0 91.165H17.1714V225.767H91.2232V241.319H0V91.165Z" fill="#0FA69D"/>
<path d="M119.126 87.9473H137.908V106.18H119.126V87.9473ZM120.2 130.848H136.834V241.319H120.2V130.848Z" fill="#0FA69D"/>
<path d="M180.837 212.36V145.327H165.275V130.848H180.837V97.5996H197.471V130.848H232.887V145.327H197.471V210.215C197.471 223.622 204.984 228.448 216.253 228.448C221.619 228.448 226.448 227.375 232.351 224.694V238.637C226.448 241.855 220.545 243.463 212.496 243.463C194.252 243.463 180.837 234.883 180.837 212.36Z" fill="#0FA69D"/>
<path d="M267.23 212.36V145.327H252.205V130.848H267.767V97.5996H284.401V130.848H319.818V145.327H284.401V210.215C284.401 223.622 291.914 228.448 303.183 228.448C308.549 228.448 313.378 227.375 319.281 224.694V238.637C313.378 241.855 307.476 243.463 299.426 243.463C281.182 243.463 267.23 234.883 267.23 212.36Z" fill="#0FA69D"/>
<path d="M349.868 84.7295H366.503V241.318H349.868V84.7295Z" fill="#0FA69D"/>
<path d="M398.162 186.62C398.162 154.444 420.7 128.703 451.286 128.703C484.019 128.703 502.8 154.98 502.8 187.156C502.8 189.301 502.8 190.373 502.8 192.519H414.797C416.943 216.65 434.115 230.057 453.969 230.057C468.994 230.057 479.726 223.622 488.849 214.505L499.044 223.622C487.775 235.956 474.36 244.536 453.433 244.536C422.846 244 398.162 220.94 398.162 186.62ZM486.166 180.184C484.556 159.806 472.75 142.646 450.75 142.646C431.432 142.646 416.943 158.734 414.797 180.184H486.166Z" fill="#0FA69D"/>
<g opacity="0.6">
<path opacity="0.6" d="M526.411 187.156C526.411 151.226 553.241 129.239 579.535 129.239C601.536 129.239 615.488 141.573 624.61 155.516V84.7295H635.342V241.319H624.61V216.65C614.951 231.13 600.999 243.464 579.535 243.464C553.241 244 526.411 223.086 526.411 187.156ZM625.147 187.156C625.147 158.734 603.146 139.965 580.608 139.965C556.998 139.965 537.68 157.125 537.68 186.62V187.156C537.68 216.114 557.534 234.347 580.608 234.347C603.146 233.811 625.147 215.042 625.147 187.156Z" fill="#0FA69D" fill-opacity="0.6"/>
<path opacity="0.6" d="M665.929 209.679C665.929 186.619 685.247 173.749 713.687 173.749C728.712 173.749 739.444 175.894 750.176 178.575V173.749C750.176 151.762 736.761 140.501 714.223 140.501C700.808 140.501 690.076 144.254 679.88 149.081L676.124 139.964C687.93 134.602 699.735 130.312 714.76 130.312C729.785 130.312 741.59 134.602 749.103 142.109C756.615 149.617 760.372 159.27 760.372 173.213V241.318H750.176V223.085C742.664 233.81 729.248 243.999 708.321 243.999C687.93 243.999 665.929 232.738 665.929 209.679ZM750.176 200.562V188.228C741.054 186.083 728.712 183.402 713.15 183.402C690.076 183.402 677.197 193.591 677.197 209.142C677.197 225.23 692.223 234.347 708.857 234.347C731.395 234.347 750.176 220.404 750.176 200.562Z" fill="#0FA69D" fill-opacity="0.6"/>
<path opacity="0.6" d="M802.764 213.433V141.573H786.666V131.921H802.764V97.0635H813.496V131.921H852.132V141.573H813.496V212.36C813.496 227.912 822.618 233.811 835.497 233.811C840.863 233.811 845.156 232.738 851.595 230.057V239.71C846.229 242.391 840.863 243.463 833.887 243.463C816.715 243.463 802.764 234.347 802.764 213.433Z" fill="#0FA69D" fill-opacity="0.6"/>
<path opacity="0.6" d="M874.132 209.679C874.132 186.619 893.45 173.749 921.89 173.749C936.915 173.749 947.648 175.894 958.38 178.575V173.749C958.38 151.762 944.964 140.501 922.427 140.501C909.012 140.501 898.28 144.254 888.084 149.081L884.328 139.964C896.133 134.602 907.939 130.312 922.964 130.312C937.989 130.312 949.794 134.602 957.306 142.109C964.819 149.617 968.575 159.27 968.575 173.213V241.318H958.38V223.085C950.867 233.81 937.452 243.999 916.524 243.999C896.133 243.999 874.132 232.738 874.132 209.679ZM958.38 200.562V188.228C949.257 186.083 936.915 183.402 921.354 183.402C898.28 183.402 885.401 193.591 885.401 209.142C885.401 225.23 900.426 234.347 917.061 234.347C939.062 234.347 958.38 220.404 958.38 200.562Z" fill="#0FA69D" fill-opacity="0.6"/>
</g>
</g>
<defs>
<clipPath id="clip0_793_5963">
<rect width="1224" height="244" fill="white"/>
</clipPath>
</defs>
</svg>
