<svg width="1342" height="240" viewBox="0 0 1342 240" fill="none" xmlns="http://www.w3.org/2000/svg">
<g clip-path="url(#clip0_588_5034)">
<path d="M469.12 189.012L432.402 112.084C423.637 93.9062 414.635 73.2564 411.562 63.5495L410.852 64.2584C412.034 77.9826 412.271 95.2695 412.507 109.703L413.453 189.012H386.702V25.1946H417.49L457.281 105.176C463.95 118.775 469.573 132.861 474.102 147.312L474.812 146.603C474.102 138.314 472.448 114.883 472.448 99.9594L471.975 25.1582H497.798V188.976L469.12 189.012Z" fill="black"/>
<path d="M546.555 136.224V138.042C546.555 154.62 552.72 172.125 576.161 172.125C587.291 172.125 597.002 168.108 606.004 160.291L616.188 176.16C604.244 186.537 588.912 192.183 573.088 192.029C539.226 192.029 517.912 167.653 517.912 129.298C517.912 108.23 522.404 94.2516 532.843 82.418C542.554 71.2932 554.393 66.3125 569.56 66.3125C581.724 65.9293 593.549 70.3505 602.476 78.6188C612.896 88.0894 618.116 102.759 618.116 130.698V136.151L546.555 136.224ZM569.523 86.0353C554.847 86.0353 546.791 97.6327 546.791 117.046H591.073C591.073 97.6691 582.562 86.0353 569.523 86.0353Z" fill="black"/>
<path d="M756.709 189.485H732.231L717.556 134.333C713.773 120.137 709.736 101.614 709.736 101.614H709.263C709.263 101.614 707.444 113.447 701.443 135.46L687.003 189.43H662.598L629.864 70.8206L655.688 67.1851L668.709 125.19C672.018 140.096 674.874 156.674 674.874 156.674H675.583C677.329 145.834 679.623 135.089 682.457 124.481L697.86 69.0937H723.448L736.96 123.118C741.943 142.532 744.543 157.201 744.543 157.201H745.252C745.252 157.201 748.089 139.023 751.181 125.008L763.493 69.1301H790.499L756.709 189.485Z" fill="black"/>
<path d="M942.295 189.012L928.092 163.672C916.744 143.567 909.143 132.206 900.141 123.118C898.826 121.573 897.19 120.335 895.345 119.49C893.501 118.645 891.494 118.214 889.466 118.228V189.012H862.714V25.1943H912.689C949.406 25.1943 965.973 46.4986 965.973 72.0746C965.973 95.5056 950.824 117.064 925.237 117.064C931.165 120.136 942.059 136.006 950.57 149.784L974.72 189.084L942.295 189.012ZM904.396 47.2257H889.466V99.0685H903.432C917.635 99.0685 925.255 97.2507 930.202 92.1973C934.694 87.7074 937.476 80.8362 937.476 72.3109C937.567 55.7329 928.565 47.2075 904.396 47.2075V47.2257Z" fill="black"/>
<path d="M1010.49 136.224V138.042C1010.49 154.62 1016.66 172.125 1040.1 172.125C1051.23 172.125 1060.94 168.108 1069.94 160.291L1080.12 176.16C1068.18 186.537 1052.85 192.183 1037.02 192.029C1003.16 192.029 981.849 167.653 981.849 129.298C981.849 108.23 986.341 94.2516 996.78 82.418C1006.49 71.2932 1018.33 66.3125 1033.5 66.3125C1045.66 65.9293 1057.49 70.3505 1066.41 78.6188C1076.83 88.0894 1082.05 102.759 1082.05 130.698V136.151L1010.49 136.224ZM1033.48 86.0353C1018.8 86.0353 1010.75 97.6327 1010.75 117.046H1054.96C1054.96 97.6691 1046.5 86.0353 1033.48 86.0353Z" fill="black"/>
<path d="M1130.81 191.63C1104.51 191.63 1104.51 167.999 1104.51 157.783V55.7331C1104.81 44.0123 1104.05 32.2882 1102.24 20.7047L1129.01 14.7788C1130.83 22.0499 1131.14 32.0658 1131.14 47.6804V149.239C1131.14 165.345 1131.85 167.944 1133.74 170.78C1134.77 171.963 1136.16 172.78 1137.7 173.108C1139.24 173.436 1140.84 173.256 1142.27 172.598L1146.52 188.703C1141.53 190.704 1136.19 191.699 1130.81 191.63Z" fill="black"/>
<path d="M1176.04 51.4796C1173.79 51.4584 1171.58 50.9933 1169.51 50.1111C1167.45 49.229 1165.59 47.9473 1164.02 46.3401C1162.46 44.7329 1161.23 42.8319 1160.4 40.747C1159.58 38.662 1159.17 36.4344 1159.21 34.1926C1159.24 30.7897 1160.28 27.4714 1162.2 24.6593C1164.11 21.8473 1166.82 19.6686 1169.98 18.4002C1173.14 17.1318 1176.61 16.8309 1179.94 17.5357C1183.27 18.2406 1186.31 19.9195 1188.69 22.3589C1191.06 24.7983 1192.66 27.8881 1193.27 31.2355C1193.88 34.583 1193.48 38.0369 1192.13 41.1583C1190.77 44.2797 1188.52 46.9276 1185.65 48.7654C1182.79 50.6032 1179.44 51.548 1176.04 51.4796ZM1163.02 189.03V71.1297L1189.31 66.3853V189.012L1163.02 189.03Z" fill="black"/>
<path d="M1263.91 192.102C1231.18 192.102 1212.99 169.144 1212.99 130.552C1212.99 86.9259 1239.05 66.167 1265.73 66.167C1278.75 66.167 1288.22 69.239 1298.88 79.1822L1285.92 96.451C1278.8 90.0525 1272.66 87.2168 1265.78 87.2168C1261.79 87.1492 1257.86 88.2574 1254.49 90.4035C1251.12 92.5497 1248.46 95.6389 1246.83 99.2867C1243.2 106.558 1241.87 117.755 1241.87 132.661C1241.87 149.021 1244.47 159.419 1249.93 165.381C1251.93 167.585 1254.39 169.337 1257.12 170.521C1259.86 171.706 1262.82 172.296 1265.8 172.252C1274.09 172.252 1282.17 168.235 1289.95 160.418L1302.26 176.287C1291.37 187.121 1280 192.102 1263.91 192.102Z" fill="black"/>
<path d="M1324.49 191.648C1321.01 191.666 1317.6 190.65 1314.69 188.729C1311.79 186.809 1309.52 184.07 1308.18 180.86C1306.83 177.649 1306.47 174.112 1307.14 170.697C1307.81 167.281 1309.47 164.14 1311.93 161.673C1314.38 159.205 1317.52 157.522 1320.93 156.837C1324.35 156.151 1327.89 156.494 1331.1 157.821C1334.32 159.149 1337.08 161.402 1339.01 164.295C1340.95 167.187 1341.98 170.589 1341.98 174.07C1341.99 176.373 1341.55 178.656 1340.67 180.787C1339.8 182.918 1338.51 184.855 1336.88 186.488C1335.26 188.121 1333.33 189.418 1331.2 190.303C1329.07 191.188 1326.79 191.645 1324.49 191.648ZM1324.49 159.982C1321.66 159.859 1318.87 160.583 1316.46 162.063C1314.05 163.542 1312.14 165.709 1310.98 168.283C1309.81 170.857 1309.45 173.721 1309.92 176.505C1310.4 179.289 1311.7 181.867 1313.66 183.905C1315.62 185.943 1318.14 187.348 1320.91 187.94C1323.67 188.531 1326.55 188.282 1329.17 187.223C1331.79 186.165 1334.03 184.347 1335.61 182.002C1337.19 179.658 1338.03 176.895 1338.02 174.07C1338.07 172.252 1337.76 170.443 1337.1 168.747C1336.45 167.05 1335.46 165.501 1334.2 164.189C1332.94 162.876 1331.44 161.827 1329.77 161.102C1328.1 160.376 1326.31 159.99 1324.49 159.964V159.982ZM1327.94 183.813C1327.18 182.486 1326.85 181.995 1326.12 180.541C1324.18 176.996 1323.58 175.997 1322.87 175.724C1322.68 175.627 1322.47 175.577 1322.25 175.579V183.813H1318.38V164.09H1325.65C1326.42 164.037 1327.2 164.15 1327.93 164.42C1328.65 164.69 1329.31 165.111 1329.86 165.657C1330.41 166.202 1330.84 166.858 1331.12 167.582C1331.4 168.305 1331.52 169.079 1331.47 169.853C1331.58 171.154 1331.19 172.449 1330.37 173.465C1329.55 174.482 1328.37 175.142 1327.07 175.306C1327.37 175.555 1327.64 175.842 1327.87 176.16C1329 177.578 1332.6 183.813 1332.6 183.813H1327.94ZM1325.92 167.544C1325.2 167.342 1324.45 167.245 1323.71 167.253H1322.29V172.597H1323.61C1325.32 172.597 1326.07 172.397 1326.6 171.925C1327.1 171.391 1327.38 170.679 1327.36 169.943C1327.41 169.442 1327.3 168.937 1327.04 168.504C1326.78 168.071 1326.39 167.734 1325.92 167.544Z" fill="black"/>
<path d="M294.282 88.2529C280.37 24.3584 203.717 -13.2149 123.045 4.30839C42.3726 21.8317 -11.73 87.853 2.1639 151.729C16.0578 215.606 92.729 253.215 173.383 235.674C254.037 218.132 308.176 152.202 294.282 88.2529ZM148.232 178.887C136.578 178.887 125.186 175.433 115.497 168.961C105.807 162.49 98.2549 153.291 93.7952 142.53C89.3356 131.768 88.1687 119.926 90.4422 108.501C92.7157 97.0766 98.3275 86.5824 106.568 78.3456C114.808 70.1089 125.307 64.4996 136.737 62.2271C148.167 59.9546 160.014 61.121 170.78 65.5787C181.547 70.0363 190.749 77.5851 197.224 87.2705C203.698 96.9558 207.154 108.343 207.154 119.991C207.154 127.725 205.63 135.384 202.669 142.53C199.708 149.675 195.367 156.168 189.896 161.637C184.425 167.106 177.929 171.444 170.78 174.404C163.632 177.364 155.97 178.887 148.232 178.887Z" fill="#008C99"/>
<path d="M161.253 37.5371C144.521 37.5407 128.167 42.5033 114.257 51.7973C100.347 61.0914 89.5059 74.2995 83.1055 89.7516C76.7051 105.204 75.0324 122.206 78.2987 138.608C81.5651 155.011 89.6239 170.076 101.456 181.901C113.288 193.725 128.363 201.777 144.773 205.039C161.183 208.3 178.193 206.624 193.65 200.224C209.108 193.823 222.32 182.984 231.615 169.078C240.91 155.172 245.871 138.824 245.871 122.1C245.871 110.993 243.682 99.9956 239.43 89.7348C235.177 79.474 228.944 70.1511 221.086 62.2985C213.228 54.4459 203.9 48.2174 193.634 43.9688C183.367 39.7202 172.364 37.5347 161.253 37.5371ZM148.214 171.434C138.035 171.434 128.084 168.417 119.621 162.764C111.157 157.112 104.561 149.077 100.666 139.677C96.7703 130.277 95.7511 119.934 97.7369 109.955C99.7227 99.9762 104.624 90.8099 111.822 83.6155C119.02 76.4211 128.19 71.5216 138.173 69.5367C148.157 67.5518 158.505 68.5705 167.909 72.4641C177.313 76.3577 185.351 82.9512 191.006 91.411C196.661 99.8707 199.679 109.817 199.679 119.991C199.679 133.631 194.26 146.713 184.612 156.36C174.964 166.007 161.878 171.429 148.232 171.434H148.214Z" fill="#70CCD3"/>
</g>
<defs>
<clipPath id="clip0_588_5034">
<rect width="1342" height="240" fill="white"/>
</clipPath>
</defs>
</svg>
