<svg width="1387" height="180" viewBox="0 0 1387 180" fill="none" xmlns="http://www.w3.org/2000/svg">
<path d="M1263.23 148.525C1236.79 148.525 1214.55 130.771 1207.64 106.68H1354.31L1374.66 75.1547H1207.64C1214.35 50.9346 1236.79 33.0514 1263.23 33.0514H1364.2L1384.37 1.66831H1260.92C1211.52 1.66831 1171.57 41.5625 1171.57 90.8153C1171.57 140.017 1211.52 180 1260.92 180H1366.86L1387 148.525H1263.23ZM843.02 180C793.704 180 753.704 140.017 753.704 90.8153C753.704 41.5625 793.704 1.66831 843.02 1.66831H966.431L946.233 33.0514H845.26C813.382 33.0514 787.474 58.9909 787.474 90.8153C787.474 122.715 813.382 148.525 845.26 148.525H969.189L948.942 180H843.02ZM190.731 148.525C222.69 148.525 248.675 122.715 248.675 90.8153C248.675 58.9909 222.69 33.0514 190.731 33.0514H91.5714C59.7043 33.0514 33.7837 58.9909 33.7837 90.8153C33.7837 122.715 59.7043 148.525 91.5714 148.525H190.731ZM89.3557 180C39.9485 180 0 140.017 0 90.8153C0 41.5625 39.9485 1.66831 89.3557 1.66831H193.052C242.378 1.66831 282.326 41.5625 282.326 90.8153C282.326 140.017 242.378 180 193.052 180H89.3557ZM450.921 122.29C484.422 122.29 511.351 95.1852 511.351 61.9778C511.351 28.7084 484.422 1.66831 450.921 1.66831H300.659V180H335.038V33.0514H448.708C464.55 33.0514 477.567 46.0346 477.567 61.9778C477.567 77.859 464.55 90.8153 448.708 90.8153L351.902 90.7104L454.288 180H504.175L435.3 122.29H450.921ZM1019.1 148.525V1.68177H984.853V162.814C984.853 167.367 986.599 171.529 989.837 174.866C993.244 178.046 997.778 179.973 1002.38 179.973H1159.06L1179.43 148.525H1019.1ZM598.698 117.078H690.474L642.132 39.0923L553.062 180H512.661L620.721 10.914C625.446 4.04969 633.363 0 642.132 0C650.396 0 658.222 3.94475 662.923 10.5642L771.439 180H730.8L711.732 148.499H618.893L598.698 117.078Z" fill="#4E5052"/>
</svg>
