<svg width="1266" height="353" viewBox="0 0 1266 353" fill="none" xmlns="http://www.w3.org/2000/svg">
<path d="M223.579 60.1363C237.336 46.3793 237.336 24.0748 223.579 10.3178C209.821 -3.43925 187.515 -3.43925 173.757 10.3178C159.999 24.0748 159.999 46.3793 173.757 60.1363C187.515 73.8933 209.821 73.8933 223.579 60.1363Z" fill="black"/>
<path d="M283.925 190.032L143.693 49.8072L93.9334 0.050293C66.3805 27.6017 66.6547 71.8758 94.0705 99.4276L154.523 159.876L154.385 160.013L188.655 194.281C189.889 195.514 190.711 197.296 190.711 199.078C190.711 200.997 189.751 202.779 188.518 204.013L148.491 244.038C145.749 246.78 141.5 246.78 138.758 244.038L98.7312 203.875C95.9896 201.134 95.9896 196.885 98.7312 194.144C126.147 164.947 105.722 129.994 92.9739 118.206L84.0637 109.296L4.00957 189.483C-1.33652 194.829 -1.33652 203.464 4.00957 208.81L133.961 338.754C139.306 344.1 147.943 344.1 153.288 338.754L282.966 209.084C285.845 206.754 287.627 203.19 287.627 199.216C287.627 195.652 286.118 192.362 283.925 190.032Z" fill="black"/>
<path d="M463.635 160.699C431.969 156.587 426.622 150.008 426.622 136.986C426.622 123.827 438.822 115.602 458.562 115.602C480.22 115.602 491.05 122.73 494.614 139.179L494.751 139.727H512.983L512.846 139.041C509.693 114.505 490.364 101.073 458.425 101.073C428.954 101.073 407.569 116.837 407.569 138.63C407.569 165.908 432.928 173.035 460.344 176.737C488.856 180.711 497.629 186.743 497.629 202.095C497.629 216.625 482.962 227.042 462.674 227.042C430.734 227.042 424.292 212.923 421.963 197.709L421.825 197.16H402.223L402.36 197.845C404.826 217.721 417.301 241.571 462.674 241.571C493.791 241.571 517.369 224.026 517.369 200.861C517.369 173.584 496.807 165.359 463.635 160.699Z" fill="black"/>
<path d="M647.179 102.853H536.007V120.26H581.381V239.925H601.669V120.26H647.179V102.853Z" fill="black"/>
<path d="M702.832 102.853L648.549 239.925H667.877L682.956 200.859H746.56L761.914 239.925H782.064L728.604 102.853H702.832ZM689.947 185.095L714.758 118.89L739.569 185.095H689.947Z" fill="black"/>
<path d="M784.807 120.26H830.317V239.925H850.605V120.26H896.115V102.853H784.807V120.26Z" fill="black"/>
<path d="M946.012 179.749H984.532V162.479H946.012V120.26H1021.82V102.853H925.725V239.925H1021.82V222.516H946.012V179.749Z" fill="black"/>
<path d="M1074.99 102.853H1054.71V239.925H1146.55V222.516H1074.99V102.853Z" fill="black"/>
<path d="M1240.33 102.853L1201.39 165.358L1160.82 102.853H1137.79L1190.7 180.298V239.925H1210.99V180.436L1260.89 102.853H1240.33Z" fill="black"/>
</svg>
