<svg width="1230" height="370" viewBox="0 0 1230 370" fill="none" xmlns="http://www.w3.org/2000/svg">
<path d="M492.62 152.747C494.177 155.74 496.245 158.163 498.824 160.017C501.4 161.874 504.428 163.249 507.906 164.146C511.382 165.043 514.978 165.492 518.696 165.492C521.213 165.492 523.911 165.285 526.788 164.864C529.665 164.446 532.363 163.638 534.881 162.441C537.398 161.246 539.495 159.6 541.174 157.504C542.852 155.412 543.693 152.747 543.693 149.517C543.693 146.047 542.583 143.233 540.365 141.079C538.146 138.926 535.24 137.131 531.644 135.695C528.048 134.259 523.969 133.003 519.415 131.925C514.858 130.847 510.244 129.654 505.568 128.335C500.772 127.14 496.096 125.674 491.54 123.938C486.983 122.204 482.908 119.961 479.312 117.207C475.716 114.455 472.808 111.014 470.59 106.885C468.37 102.757 467.263 97.7615 467.263 91.8966C467.263 85.3161 468.671 79.6009 471.489 74.7542C474.305 69.9075 477.991 65.8688 482.549 62.638C487.105 59.4072 492.26 57.0142 498.015 55.4577C503.769 53.9045 509.525 53.124 515.278 53.124C521.992 53.124 528.435 53.8736 534.611 55.3685C540.784 56.8656 546.269 59.2895 551.065 62.638C555.859 65.9899 559.666 70.2664 562.485 75.473C565.3 80.6775 566.711 86.9915 566.711 94.4096H539.377C539.135 90.5811 538.326 87.4098 536.948 84.8956C535.569 82.3826 533.74 80.4089 531.464 78.9724C529.185 77.537 526.577 76.521 523.641 75.921C520.702 75.3233 517.496 75.0239 514.02 75.0239C511.741 75.0239 509.462 75.265 507.186 75.7416C504.907 76.2205 502.839 77.0592 500.982 78.2547C499.122 79.4523 497.593 80.9472 496.396 82.7414C495.196 84.5368 494.598 86.8121 494.598 89.564C494.598 92.076 495.076 94.1124 496.036 95.6667C496.995 97.2232 498.883 98.6586 501.701 99.9751C504.517 101.293 508.414 102.608 513.39 103.924C518.364 105.241 524.869 106.916 532.902 108.95C535.3 109.429 538.626 110.296 542.884 111.552C547.137 112.809 551.363 114.814 555.562 117.565C559.757 120.32 563.384 124 566.441 128.604C569.498 133.213 571.027 139.105 571.027 146.286C571.027 152.15 569.886 157.594 567.611 162.62C565.331 167.646 561.946 171.986 557.45 175.633C552.953 179.285 547.379 182.126 540.725 184.16C534.071 186.194 526.367 187.213 517.617 187.213C510.542 187.213 503.68 186.343 497.025 184.608C490.372 182.875 484.496 180.152 479.403 176.441C474.305 172.734 470.259 168.005 467.263 162.261C464.265 156.517 462.826 149.697 462.948 141.798H490.282C490.282 146.106 491.06 149.758 492.62 152.747Z" fill="black"/>
<path d="M682.161 174.557C672.45 182.995 659.022 187.213 641.879 187.213C624.494 187.213 611.037 183.024 601.506 174.647C591.975 166.273 587.209 153.349 587.209 135.875V56.1768H615.443V135.875C615.443 139.348 615.74 142.758 616.342 146.107C616.941 149.458 618.199 152.421 620.118 154.992C622.035 157.567 624.703 159.659 628.121 161.275C631.539 162.89 636.124 163.698 641.879 163.698C651.948 163.698 658.9 161.455 662.739 156.967C666.575 152.479 668.494 145.451 668.494 135.875V56.1768H696.728V135.875C696.728 153.228 691.872 166.121 682.161 174.557Z" fill="black"/>
<path d="M771.183 116.489C774.42 116.489 777.537 116.25 780.534 115.772C783.529 115.294 786.168 114.366 788.447 112.989C790.723 111.614 792.552 109.669 793.932 107.156C795.308 104.642 796 101.353 796 97.283C796 93.2156 795.308 89.9232 793.932 87.4101C792.552 84.8971 790.723 82.9531 788.447 81.576C786.168 80.2022 783.529 79.2732 780.534 78.7944C777.537 78.3166 774.42 78.0767 771.183 78.0767H749.243V116.489H771.183ZM778.916 56.1768C786.947 56.1768 793.78 57.3436 799.417 59.6772C805.051 62.0109 809.636 65.093 813.174 68.9215C816.708 72.7533 819.288 77.119 820.907 82.024C822.526 86.9324 823.334 92.0191 823.334 97.283C823.334 102.43 822.526 107.486 820.907 112.451C819.288 117.418 816.708 121.816 813.174 125.643C809.636 129.475 805.051 132.555 799.417 134.889C793.78 137.221 786.947 138.389 778.916 138.389H749.243V184.341H721.01V56.1768H778.916Z" fill="black"/>
<path d="M936.98 56.1768V79.8709H869.182V107.335H931.405V129.234H869.182V160.646H938.419V184.341H840.949V56.1768H936.98Z" fill="black"/>
<path d="M1016.65 114.156C1023.12 114.156 1027.98 112.719 1031.21 109.848C1034.45 106.976 1036.07 102.308 1036.07 95.8464C1036.07 89.626 1034.45 85.1073 1031.21 82.2948C1027.98 79.4845 1023.12 78.0767 1016.65 78.0767H985.715V114.156H1016.65ZM1026.72 56.1768C1032.47 56.1768 1037.66 57.1058 1042.27 58.9584C1046.89 60.8154 1050.84 63.3571 1054.14 66.5879C1057.44 69.8197 1059.96 73.5602 1061.7 77.807C1063.43 82.056 1064.3 86.633 1064.3 91.538C1064.3 99.0783 1062.71 105.602 1059.54 111.104C1056.36 116.609 1051.17 120.797 1043.98 123.67V124.028C1047.46 124.987 1050.33 126.451 1052.61 128.426C1054.89 130.401 1056.75 132.734 1058.19 135.426C1059.63 138.119 1060.68 141.081 1061.33 144.312C1061.99 147.543 1062.44 150.774 1062.68 154.005C1062.8 156.041 1062.92 158.434 1063.04 161.185C1063.16 163.939 1063.37 166.749 1063.67 169.621C1063.97 172.493 1064.45 175.218 1065.11 177.789C1065.77 180.363 1066.76 182.546 1068.08 184.341H1039.84C1038.28 180.274 1037.33 175.427 1036.97 169.801C1036.61 164.177 1036.07 158.793 1035.35 153.646C1034.39 146.945 1032.35 142.04 1029.23 138.927C1026.12 135.817 1021.02 134.26 1013.95 134.26H985.715V184.341H957.482V56.1768H1026.72Z" fill="black"/>
<path d="M553.403 238.421C551.723 235.728 549.627 233.366 547.109 231.331C544.592 229.297 541.742 227.712 538.567 226.573C535.389 225.438 532.062 224.868 528.587 224.868C522.23 224.868 516.835 226.098 512.401 228.548C507.964 231.003 504.368 234.292 501.611 238.421C498.852 242.55 496.846 247.248 495.586 252.512C494.328 257.779 493.698 263.222 493.698 268.846C493.698 274.231 494.328 279.467 495.586 284.552C496.846 289.64 498.852 294.217 501.611 298.284C504.368 302.354 507.964 305.616 512.401 308.068C516.835 310.521 522.23 311.747 528.587 311.747C537.219 311.747 543.962 309.117 548.818 303.849C553.674 298.585 556.64 291.643 557.72 283.026H585.054C584.334 291.045 582.475 298.284 579.479 304.747C576.481 311.208 572.524 316.714 567.61 321.261C562.692 325.81 556.938 329.28 550.346 331.672C543.752 334.065 536.498 335.262 528.587 335.262C518.754 335.262 509.912 333.556 502.061 330.146C494.207 326.735 487.584 322.04 482.189 316.055C476.794 310.072 472.658 303.041 469.781 294.963C466.903 286.886 465.465 278.181 465.465 268.846C465.465 259.274 466.903 250.388 469.781 242.191C472.658 233.994 476.794 226.843 482.189 220.74C487.584 214.637 494.207 209.852 502.061 206.38C509.912 202.91 518.754 201.174 528.587 201.174C535.659 201.174 542.343 202.192 548.638 204.226C554.932 206.262 560.566 209.224 565.542 213.112C570.516 217.001 574.624 221.817 577.86 227.562C581.098 233.305 583.134 239.888 583.974 247.306H556.64C556.16 244.075 555.081 241.113 553.403 238.421Z" fill="black"/>
<path d="M632.529 204.227V253.41H684.501V204.227H712.735V332.391H684.501V277.104H632.529V332.391H604.295V204.227H632.529Z" fill="black"/>
<path d="M803.187 282.848L787.002 235.819H786.642L769.917 282.848H803.187ZM801.568 204.227L849.583 332.391H820.27L810.56 303.85H762.544L752.474 332.391H724.06L772.615 204.227H801.568Z" fill="black"/>
<path d="M919.897 262.205C926.371 262.205 931.226 260.769 934.463 257.898C937.701 255.026 939.319 250.358 939.319 243.896C939.319 237.676 937.701 233.157 934.463 230.345C931.226 227.534 926.371 226.126 919.897 226.126H888.966V262.205H919.897ZM929.968 204.227C935.723 204.227 940.907 205.156 945.523 207.008C950.137 208.865 954.093 211.407 957.392 214.638C960.688 217.87 963.206 221.61 964.946 225.857C966.682 230.106 967.553 234.683 967.553 239.588C967.553 247.128 965.963 253.651 962.788 259.154C959.609 264.659 954.425 268.846 947.231 271.719V272.078C950.706 273.037 953.585 274.501 955.863 276.476C958.139 278.451 960 280.784 961.439 283.476C962.877 286.169 963.926 289.13 964.585 292.362C965.243 295.593 965.693 298.824 965.934 302.054C966.053 304.091 966.173 306.484 966.294 309.235C966.413 311.989 966.622 314.799 966.923 317.671C967.221 320.543 967.702 323.267 968.361 325.839C969.02 328.412 970.008 330.595 971.33 332.391H943.095C941.535 328.323 940.578 323.477 940.219 317.851C939.859 312.227 939.319 306.843 938.6 301.696C937.639 294.995 935.601 290.09 932.485 286.977C929.366 283.866 924.272 282.31 917.2 282.31H888.966V332.391H860.732V204.227H929.968Z" fill="black"/>
<path d="M1066.64 331.403C1060.52 333.974 1054.35 335.262 1048.11 335.262C1038.28 335.262 1029.44 333.556 1021.59 330.146C1013.74 326.736 1007.11 322.04 1001.72 316.056C996.322 310.072 992.187 303.04 989.31 294.963C986.431 286.887 984.993 278.181 984.993 268.846C984.993 259.275 986.431 250.388 989.31 242.191C992.187 233.996 996.322 226.844 1001.72 220.74C1007.11 214.637 1013.74 209.852 1021.59 206.38C1029.44 202.911 1038.28 201.174 1048.11 201.174C1054.71 201.174 1061.09 202.162 1067.27 204.137C1073.44 206.111 1079.02 209.014 1083.99 212.842C1088.97 216.673 1093.07 221.399 1096.31 227.023C1099.55 232.649 1101.53 239.111 1102.24 246.409H1075.27C1073.59 239.229 1070.35 233.844 1065.56 230.253C1060.76 226.664 1054.95 224.869 1048.11 224.869C1041.76 224.869 1036.36 226.098 1031.93 228.549C1027.49 231.003 1023.9 234.292 1021.14 238.421C1018.38 242.55 1016.37 247.248 1015.12 252.512C1013.86 257.779 1013.23 263.223 1013.23 268.846C1013.23 274.231 1013.86 279.467 1015.12 284.552C1016.37 289.641 1018.38 294.218 1021.14 298.284C1023.9 302.354 1027.49 305.616 1031.93 308.068C1036.36 310.521 1041.76 311.748 1048.11 311.748C1057.47 311.748 1064.69 309.385 1069.79 304.656C1074.88 299.931 1077.85 293.08 1078.69 284.104H1050.27V263.102H1104.22V332.389H1086.24L1083.36 317.849C1078.33 324.313 1072.75 328.83 1066.64 331.403Z" fill="black"/>
<path d="M1223.09 204.227V227.921H1155.3V255.385H1217.52V277.284H1155.3V308.695H1224.53V332.391H1127.06V204.227H1223.09Z" fill="black"/>
<path d="M274.078 215.606L72.3804 366.08L223.132 164.755L274.078 215.606Z" fill="black"/>
<path d="M313.912 13.3457L163.161 214.671L112.215 163.818L313.912 13.3457Z" fill="black"/>
<path d="M71.8047 326.623L89.5864 302.873C55.9352 274.47 34.5274 232.046 34.5274 184.719C34.5274 99.4109 104.06 30.0072 189.525 30.0072C220.986 30.0072 250.281 39.421 274.752 55.5616L292.535 31.8102C263.09 11.9842 227.639 0.397461 189.525 0.397461C87.7017 0.397461 4.86182 83.0831 4.86182 184.719C4.86182 241.735 30.9356 292.786 71.8047 326.623Z" fill="black"/>
<path d="M315.728 50.2949L297.847 74.1773C326.627 102.283 344.522 141.451 344.522 184.719C344.522 270.027 274.99 339.431 189.524 339.431C162.11 339.431 136.34 332.28 113.973 319.763L96.0908 343.647C123.518 359.773 155.455 369.04 189.524 369.04C291.348 369.04 374.187 286.355 374.187 184.719C374.187 131.757 351.683 83.9467 315.728 50.2949Z" fill="black"/>
</svg>
