<svg width="874" height="276" viewBox="0 0 874 276" fill="none" xmlns="http://www.w3.org/2000/svg">
<path d="M377.306 159.554V167.353C372.848 161.657 366.381 157.89 357.116 157.89C339.199 157.89 325.041 172.084 325.041 191.711C325.041 211.425 339.199 225.532 357.116 225.532C366.206 225.532 372.761 221.852 377.306 216.069V223.779H391.29V159.467H377.306V159.554ZM358.864 212.389C346.803 212.389 339.549 203.013 339.549 191.798C339.549 180.583 346.891 171.208 358.864 171.208C370.401 171.208 378.18 180.057 378.18 191.798C378.18 203.452 370.314 212.389 358.864 212.389Z" fill="#231F20"/>
<path d="M341.821 129.939H266.045V144.309H296.373V223.867H311.493V144.309H341.821V129.939Z" fill="#231F20"/>
<path d="M467.415 157.89C447.575 157.89 432.892 172.434 432.892 191.711C432.892 210.899 447.575 225.532 467.415 225.532C487.255 225.532 501.938 210.987 501.938 191.711C501.851 172.434 487.168 157.89 467.415 157.89ZM467.415 212.389C455.966 212.389 447.313 203.977 447.313 191.798C447.313 179.619 455.966 171.208 467.415 171.208C478.865 171.208 487.605 179.619 487.605 191.798C487.43 203.89 478.777 212.389 467.415 212.389Z" fill="#231F20"/>
<path d="M419.083 129.939H405.012V223.867H419.083V129.939Z" fill="#231F20"/>
<path d="M771.742 157.89C765.187 157.89 757.233 159.905 751.989 167.44V159.554H738.093V223.867H752.164V188.293C752.164 177.341 759.768 171.295 768.77 171.295C778.209 171.295 783.628 177.341 783.628 188.118V223.867H797.7V183.387C797.787 168.404 786.949 157.89 771.742 157.89Z" fill="#231F20"/>
<path d="M549.309 157.89C542.754 157.89 534.801 159.905 529.557 167.44V159.554H515.573V223.867H529.732V188.293C529.732 177.341 537.335 171.295 546.338 171.295C555.777 171.295 561.195 177.341 561.195 188.118V223.867H575.267V183.387C575.354 168.404 564.604 157.89 549.309 157.89Z" fill="#231F20"/>
<path d="M874 191.711C874 171.646 861.589 157.978 843.672 157.978C824.794 157.978 811.771 171.734 811.771 191.798C811.771 212.214 825.318 225.619 844.546 225.619C854.247 225.619 863.075 223.254 870.853 216.595L862.201 207.92C857.219 211.425 851.188 213.44 845.507 213.44C836.505 213.44 828.29 208.621 826.454 197.056H873.825C873.912 195.216 874 193.551 874 191.711ZM826.454 186.191C827.853 176.728 833.446 170.332 843.41 170.332C852.237 170.332 858.093 176.202 859.666 186.191H826.454Z" fill="#231F20"/>
<path d="M675.165 128.187C646.411 128.187 626.134 148.777 626.134 176.903C626.134 205.028 646.411 225.707 675.165 225.707C703.92 225.707 724.197 205.116 724.197 176.903C724.284 148.777 703.92 128.187 675.165 128.187ZM675.165 211.074C656.112 211.074 641.953 197.143 641.953 176.99C641.953 156.663 656.112 142.907 675.165 142.907C694.218 142.907 708.377 156.838 708.377 176.99C708.377 197.143 694.218 211.074 675.165 211.074Z" fill="#231F20"/>
<path d="M600.7 202.05C594.582 202.05 588.989 207.482 588.989 213.791C588.989 220.012 594.582 225.619 600.7 225.619C606.906 225.619 612.412 220.012 612.412 213.791C612.325 207.482 606.906 202.05 600.7 202.05Z" fill="#231F20"/>
<path d="M64.5884 275.65V129.939H210.022L64.5884 275.65Z" fill="#05C8FF"/>
<path d="M129.265 129.939H0V0.350586L129.265 129.939Z" fill="#1469FF"/>
<path d="M0 129.939H64.5886V194.69L0 129.939Z" fill="#000078"/>
</svg>
