<svg width="883" height="208" viewBox="0 0 883 208" fill="none" xmlns="http://www.w3.org/2000/svg">
<path d="M28.2 21.8351H0V2.03711H78.1337V21.8351H49.9334V115.731H28.2V21.8351Z" fill="#061328"/>
<path d="M126.175 2.03711H147.972V52.6695H185.824V2.03711H207.526V115.731H185.793V72.5353H147.94V115.731H126.175V2.03711Z" fill="#061328"/>
<path d="M285.722 2.03711V115.731H264.02V2.03711H285.722Z" fill="#061328"/>
<path d="M337.011 85.474H359.091C359.848 93.5905 365.116 97.4955 372.529 97.4955C379.942 97.4955 384.831 92.7752 384.831 85.474C384.831 78.1732 380.604 73.9282 366.252 67.6118C345.212 58.273 337.863 47.5764 337.863 30.8685C337.863 12.1912 350.48 0 370.889 0C389.562 0.0339588 403.757 12.0554 403.757 31.8533H381.676C381.756 30.2526 381.514 28.6523 380.966 27.1617C380.419 25.6711 379.578 24.3253 378.503 23.2163C377.428 22.1072 376.144 21.2611 374.737 20.7356C373.33 20.2101 371.834 20.0177 370.352 20.1715C363.255 20.1715 359.628 24.8918 359.628 30.5629C359.628 37.3546 364.012 41.3618 378.774 48.1873C399.877 57.9334 406.659 68.1553 406.659 84.0817C406.659 104.118 393.379 117.599 372.119 117.599C350.858 117.599 338.209 103.676 337.011 85.474Z" fill="#061328"/>
<path d="M833.099 21.8351H804.866V2.03711H883V21.8351H854.83V115.731H833.131L833.099 21.8351Z" fill="#061328"/>
<path d="M687.748 93.2177C705.884 93.2177 720.582 77.3907 720.582 57.8667C720.582 38.3428 705.884 22.5156 687.748 22.5156C669.613 22.5156 654.91 38.3428 654.91 57.8667C654.91 77.3907 669.613 93.2177 687.748 93.2177Z" fill="#F46663"/>
<path d="M738.433 1.01855H711.399L751.936 57.8657L711.399 114.679H738.433L779.001 57.8657L738.433 1.01855Z" fill="#9FACCC"/>
<path d="M637.055 1.01855H664.089L623.52 57.8657L664.089 114.679H637.055L596.519 57.8657L637.055 1.01855Z" fill="#9FACCC"/>
<path d="M512.928 115.731H477.662V2.03711H512.959C547.184 2.03711 570.277 22.8199 570.277 58.8841C570.277 94.9482 547.184 115.731 512.928 115.731ZM513.086 21.869H499.366V95.8652H513.086C532.865 95.8652 548.225 83.538 548.225 59.0198C548.225 34.5017 532.865 21.8351 513.086 21.8351V21.869Z" fill="#061328"/>
<path d="M150.492 199.977L160.015 160.818H165.335L166.551 167.339L156.403 207.361H150.689L150.492 199.977ZM145.599 160.818L153.481 199.977L152.824 207.361H146.453L135.846 160.818H145.599ZM174.924 199.817L182.707 160.818H192.46L181.886 207.361H175.516L174.924 199.817ZM168.324 160.818L177.913 200.136L177.65 207.361H171.936L161.723 167.307L163.037 160.818H168.324Z" fill="#F46663"/>
<path d="M253.435 199.881V207.361H227.985V199.881H253.435ZM231.203 160.818V207.361H221.352V160.818H231.203ZM250.118 179.774V187.062H227.985V179.774H250.118ZM253.402 160.818V168.33H227.985V160.818H253.402Z" fill="#F46663"/>
<path d="M290.767 158.261V163.12C290.767 164.505 290.493 165.933 289.946 167.403C289.42 168.873 288.709 170.269 287.811 171.59C286.914 172.89 285.928 173.999 284.855 174.915L280.422 172.421C281.232 171.164 281.922 169.801 282.491 168.33C283.06 166.838 283.345 165.112 283.345 163.151V158.261H290.767Z" fill="#F46663"/>
<path d="M321.694 160.818H339.526C343.182 160.818 346.323 161.351 348.951 162.416C351.6 163.482 353.635 165.059 355.059 167.147C356.481 169.236 357.193 171.804 357.193 174.851C357.193 177.344 356.755 179.486 355.88 181.277C355.026 183.045 353.811 184.526 352.234 185.72C350.68 186.892 348.852 187.829 346.75 188.533L343.631 190.131H328.131L328.065 182.651H339.592C341.321 182.651 342.755 182.353 343.893 181.756C345.032 181.159 345.885 180.328 346.455 179.263C347.046 178.197 347.341 176.961 347.341 175.555C347.341 174.063 347.057 172.773 346.488 171.687C345.918 170.6 345.054 169.769 343.893 169.193C342.733 168.618 341.277 168.33 339.526 168.33H331.546V207.361H321.694V160.818ZM348.425 207.361L337.523 186.615L347.933 186.551L358.966 206.913V207.361H348.425Z" fill="#F46663"/>
<path d="M420.401 199.881V207.361H394.951V199.881H420.401ZM398.169 160.818V207.361H388.317V160.818H398.169ZM417.084 179.774V187.062H394.951V179.774H417.084ZM420.368 160.818V168.33H394.951V160.818H420.368Z" fill="#F46663"/>
<path d="M521.858 179.774V187.254H496.903V179.774H521.858ZM499.823 160.818V207.361H489.975V160.818H499.823ZM528.885 160.818V207.361H519.068V160.818H528.885Z" fill="#F46663"/>
<path d="M571.473 160.818V207.361H561.656V160.818H571.473Z" fill="#F46663"/>
<path d="M604.239 160.818H622.071C625.726 160.818 628.868 161.351 631.494 162.416C634.143 163.482 636.181 165.059 637.603 167.147C639.025 169.236 639.736 171.804 639.736 174.851C639.736 177.344 639.301 179.486 638.423 181.277C637.571 183.045 636.353 184.526 634.777 185.72C633.224 186.892 631.395 187.829 629.294 188.533L626.174 190.131H610.674L610.61 182.651H622.135C623.865 182.651 625.3 182.353 626.437 181.756C627.578 181.159 628.429 180.328 628.999 179.263C629.593 178.197 629.887 176.961 629.887 175.555C629.887 174.063 629.602 172.773 629.031 171.687C628.465 170.6 627.6 169.769 626.437 169.193C625.277 168.618 623.824 168.33 622.071 168.33H614.093V207.361H604.239V160.818ZM630.969 207.361L620.065 186.615L630.476 186.551L641.511 206.913V207.361H630.969Z" fill="#F46663"/>
<path d="M681.336 160.818V207.361H671.519V160.818H681.336Z" fill="#F46663"/>
<path d="M753.018 160.818V207.361H743.169L723.956 176.162V207.361H714.103V160.818H723.956L743.201 192.049V160.818H753.018Z" fill="#F46663"/>
<path d="M823.024 183.034V201.478C822.281 202.352 821.131 203.301 819.578 204.323C818.02 205.325 816.019 206.188 813.564 206.913C811.115 207.637 808.149 208 804.666 208C801.578 208 798.766 207.509 796.226 206.529C793.69 205.528 791.498 204.068 789.66 202.15C787.844 200.232 786.44 197.888 785.458 195.117C784.471 192.325 783.977 189.139 783.977 185.56V182.651C783.977 179.07 784.448 175.884 785.39 173.093C786.354 170.301 787.722 167.946 789.497 166.028C791.267 164.11 793.382 162.651 795.832 161.649C798.286 160.647 801.012 160.146 804.01 160.146C808.171 160.146 811.585 160.807 814.257 162.128C816.929 163.428 818.962 165.24 820.366 167.563C821.788 169.864 822.661 172.507 822.992 175.49H813.433C813.193 173.913 812.736 172.539 812.056 171.367C811.377 170.194 810.404 169.278 809.131 168.618C807.886 167.957 806.265 167.626 804.272 167.626C802.633 167.626 801.166 167.957 799.871 168.618C798.603 169.257 797.53 170.205 796.656 171.463C795.778 172.72 795.112 174.276 794.65 176.129C794.193 177.983 793.962 180.136 793.962 182.587V185.56C793.962 187.989 794.202 190.141 794.686 192.017C795.166 193.871 795.877 195.437 796.819 196.716C797.784 197.973 798.965 198.921 800.365 199.561C801.768 200.2 803.398 200.52 805.26 200.52C806.813 200.52 808.103 200.392 809.131 200.136C810.186 199.88 811.029 199.571 811.662 199.209C812.319 198.825 812.822 198.463 813.17 198.122V189.875H804.173V183.034H823.024Z" fill="#F46663"/>
<path d="M864.593 160.818L863.506 193.136H855.627L854.509 160.818H864.593ZM854.246 203.141C854.246 201.777 854.731 200.648 855.691 199.753C856.678 198.836 857.968 198.378 859.567 198.378C861.188 198.378 862.478 198.836 863.443 199.753C864.407 200.648 864.887 201.777 864.887 203.141C864.887 204.463 864.407 205.581 863.443 206.497C862.478 207.414 861.188 207.872 859.567 207.872C857.968 207.872 856.678 207.414 855.691 206.497C854.731 205.581 854.246 204.463 854.246 203.141Z" fill="#F46663"/>
</svg>
