<svg width="883" height="265" viewBox="0 0 883 265" fill="none" xmlns="http://www.w3.org/2000/svg">
<path d="M127.152 99.8167C127.152 114.833 114.79 127.2 99.779 127.2C84.768 127.2 72.406 114.833 72.406 99.8167C72.406 84.8 84.768 72.4333 99.779 72.4333C114.79 72.4333 127.152 84.8 127.152 99.8167ZM99.779 137.8C84.768 137.8 72.406 150.167 72.406 165.183C72.406 180.2 84.768 192.567 99.779 192.567C114.79 192.567 127.152 180.2 127.152 165.183C127.152 150.167 114.79 137.8 99.779 137.8ZM264.9 132.5C264.9 205.817 205.739 265 132.45 265C59.161 265 0 205.817 0 132.5C0 59.1833 59.161 0 132.45 0C205.739 0 264.9 59.1833 264.9 132.5ZM229.58 132.5C229.58 78.6167 186.313 35.3333 132.45 35.3333C78.587 35.3333 35.32 78.6167 35.32 132.5C35.32 186.383 78.587 229.667 132.45 229.667C186.313 229.667 229.58 186.383 229.58 132.5ZM165.121 137.8C150.11 137.8 137.748 150.167 137.748 165.183C137.748 180.2 150.11 192.567 165.121 192.567C180.132 192.567 192.494 180.2 192.494 165.183C192.494 150.167 180.132 137.8 165.121 137.8ZM165.121 72.4333C150.11 72.4333 137.748 84.8 137.748 99.8167C137.748 114.833 150.11 127.2 165.121 127.2C180.132 127.2 192.494 114.833 192.494 99.8167C192.494 84.8 180.132 72.4333 165.121 72.4333ZM620.749 52.1167C621.632 52.1167 622.515 53 623.398 53.8833V82.15C623.398 83.9167 621.632 84.8 620.749 84.8H573.95C572.184 84.8 571.301 83.0333 571.301 82.15V54.7667C571.301 53 573.067 52.1167 573.95 52.1167H620.749ZM619.866 91.8667H529.8C528.917 91.8667 527.151 92.75 527.151 94.5167L515.672 138.683L514.789 141.333L500.661 94.5167C500.661 93.6333 498.895 91.8667 498.012 91.8667H462.692C461.809 91.8667 460.043 92.75 460.043 94.5167L446.798 138.683L445.915 141.333L445.032 138.683L439.734 116.6L434.436 94.5167C434.436 93.6333 432.67 91.8667 431.787 91.8667H361.147V53.8833C361.147 53 359.381 51.2333 357.615 52.1167L313.465 66.25C311.699 66.25 310.816 67.1333 310.816 68.9V92.75H299.337C298.454 92.75 296.688 93.6333 296.688 95.4V128.967C296.688 129.85 297.571 131.617 299.337 131.617H310.816V173.133C310.816 202.283 326.71 215.533 355.849 215.533C368.211 215.533 379.69 212.883 387.637 208.467V173.133C387.637 171.367 385.871 170.483 384.988 171.367C380.573 173.133 376.158 174.017 372.626 174.017C364.679 174.017 360.264 170.483 360.264 161.65V131.617H385.871C386.754 131.617 388.52 130.733 388.52 128.967V100.7L422.074 212C422.074 212.883 423.84 214.65 424.723 214.65H461.809C462.692 214.65 464.458 213.767 464.458 212L480.352 162.533L488.299 188.15L495.363 212C495.363 212.883 497.129 214.65 498.012 214.65H535.098C535.981 214.65 537.747 213.767 537.747 212L571.301 100.7V212C571.301 212.883 572.184 214.65 573.95 214.65H618.983C619.866 214.65 621.632 213.767 621.632 212V94.5167C621.632 93.6333 620.749 91.8667 619.866 91.8667ZM679.027 52.1167H633.994C633.111 52.1167 631.345 53 631.345 54.7667V211.117C631.345 212 632.228 213.767 633.994 213.767H679.027C679.91 213.767 681.676 212.883 681.676 211.117V53.8833C681.676 53 680.793 52.1167 679.027 52.1167ZM739.071 52.1167H692.272C691.389 52.1167 689.623 53 689.623 54.7667V82.15C689.623 83.0333 690.506 84.8 692.272 84.8H739.071C739.954 84.8 741.72 83.9167 741.72 82.15V53.8833C741.72 53 740.837 52.1167 739.071 52.1167ZM738.188 91.8667H693.155C692.272 91.8667 690.506 92.75 690.506 94.5167V210.233C690.506 211.117 691.389 212.883 693.155 212.883H738.188C739.071 212.883 740.837 212 740.837 210.233V94.5167C740.837 93.6333 739.954 91.8667 738.188 91.8667ZM880.351 151.933C880.351 185.5 852.095 214.65 812.36 214.65C773.508 214.65 745.252 185.5 745.252 151.933C745.252 118.367 773.508 89.2167 813.243 89.2167C852.095 89.2167 880.351 118.367 880.351 151.933ZM832.669 152.817C832.669 140.45 823.839 130.733 813.243 131.617C801.764 131.617 793.817 141.333 793.817 152.817C793.817 164.3 802.647 174.017 813.243 174.017C824.722 174.017 832.669 164.3 832.669 152.817Z" fill="#F22F46"/>
</svg>
