<svg width="1347" height="267" viewBox="0 0 1347 267" fill="none" xmlns="http://www.w3.org/2000/svg">
<path d="M802.93 233.759H845.836V167.041C845.836 126.728 881.435 127.435 900.059 130.5V84.7639C870.354 82.1707 852.673 90.4219 844.658 106.453H843.715L843.95 85.4712H802.694V233.759H802.93Z" fill="black"/>
<path d="M1025.48 233.759H1052.35L1096.68 177.886L1134.16 233.759H1184.14L1125.2 147.945L1176.83 85.4713H1127.09L1068.15 159.969H1067.21L1067.68 11.4453H1025.48V233.759Z" fill="black"/>
<path d="M541.009 233.758H574.25L625.172 138.515L674.444 233.758H708.157L783.833 85.4707H733.618L687.175 180.007L643.089 85.4707H607.02L560.576 180.243L516.491 85.4707H466.276L541.009 233.758Z" fill="black"/>
<path d="M957.346 64.2536C971.929 64.2536 983.751 52.4321 983.751 37.8495C983.751 23.2669 971.929 11.4453 957.346 11.4453C942.764 11.4453 930.942 23.2669 930.942 37.8495C930.942 52.4321 942.764 64.2536 957.346 64.2536Z" fill="black"/>
<path d="M978.563 85.4712H936.128V233.759H978.563V85.4712Z" fill="black"/>
<path d="M99.4474 97.9662C119.958 97.9662 129.624 101.738 144.476 116.591L224.16 196.275C226.517 198.632 226.989 199.575 227.46 200.99C227.696 201.461 227.696 202.168 227.696 202.64C227.696 203.111 227.696 203.819 227.46 204.29C226.989 205.705 226.517 206.648 224.16 209.005L169.701 263.464C167.344 265.821 166.401 266.293 164.986 266.764C164.515 267 163.807 267 163.336 267C162.864 267 162.157 267 161.686 266.764C160.271 266.293 159.328 265.821 156.971 263.464L2.55353 109.047C-1.92575 104.567 -0.275492 97.7305 7.26856 97.7305H99.4474V97.9662Z" fill="#08CF65"/>
<path d="M324.354 0.835864C303.844 0.835864 294.178 4.60787 279.326 19.4602L199.642 99.1442C197.284 101.502 196.813 102.445 196.341 103.859C196.105 104.331 196.105 105.038 196.105 105.509C196.105 105.981 196.105 106.688 196.341 107.16C196.813 108.574 197.284 109.517 199.642 111.875L254.1 166.333C256.458 168.691 257.401 169.162 258.815 169.634C259.287 169.87 259.994 169.87 260.466 169.87C260.937 169.87 261.644 169.87 262.116 169.634C263.53 169.162 264.473 168.691 266.831 166.333L421.248 11.9162C425.727 7.43693 424.077 0.600098 416.533 0.600098H324.354V0.835864Z" fill="#08CF65"/>
<path d="M1304.61 184.486C1299.42 192.266 1288.58 201.931 1270.42 201.931C1249.21 201.931 1234.12 189.672 1230.82 171.991H1346.1C1346.1 168.926 1346.1 164.447 1346.1 160.203C1346.1 117.297 1315.22 82.877 1269.48 82.877C1224.69 82.877 1190.03 116.825 1190.03 160.203C1190.03 203.346 1223.98 237.53 1269.48 237.53C1303.43 237.53 1323.94 224.092 1337.14 206.882L1304.61 184.486ZM1267.12 116.118C1286.69 116.118 1300.36 126.963 1305.08 142.522H1228.93C1233.65 126.727 1247.08 116.118 1267.12 116.118Z" fill="black"/>
</svg>
