<svg width="1434" height="494" viewBox="0 0 1434 494" fill="none" xmlns="http://www.w3.org/2000/svg">
<path d="M746.323 155.203V166.086C746.323 189.43 740.017 210.723 727.405 229.966C715.108 249.208 698.555 263.72 677.745 273.498C698.555 283.277 715.108 297.789 727.405 317.031C740.017 336.273 746.323 357.566 746.323 380.91V391.793H709.433V380.91C709.433 369.554 707.226 358.986 702.811 349.207C698.713 339.112 692.879 330.438 685.312 323.182C678.06 315.611 669.547 309.775 659.772 305.675C649.998 301.258 639.435 299.05 628.084 299.05C616.734 299.05 606.171 301.258 596.396 305.675C586.622 309.775 577.951 315.611 570.384 323.182C563.132 330.438 557.299 339.112 552.885 349.207C548.786 358.986 546.736 369.554 546.736 380.91V391.793H509.846V380.91C509.846 357.566 515.994 336.273 528.291 317.031C540.903 297.789 557.614 283.277 578.424 273.498C557.614 263.72 540.903 249.208 528.291 229.966C515.994 210.723 509.846 189.43 509.846 166.086V155.203H546.736V166.086C546.736 177.443 548.786 188.011 552.885 197.789C557.299 207.568 563.132 216.243 570.384 223.814C577.951 231.07 586.622 236.905 596.396 241.322C606.171 245.423 616.734 247.473 628.084 247.473C639.435 247.473 649.998 245.423 659.772 241.322C669.547 236.905 678.06 231.07 685.312 223.814C692.879 216.243 698.713 207.568 702.811 197.789C707.226 188.011 709.433 177.443 709.433 166.086V155.203H746.323ZM996.044 391.793H959.153V273.498C959.153 263.403 957.422 253.94 953.951 245.107C950.801 236.275 946.223 228.388 940.235 221.448C934.244 214.193 926.992 208.199 918.479 203.468C910.281 198.421 901.295 194.95 891.521 193.058C881.746 191.48 872.129 191.638 862.67 193.531C853.526 195.108 844.856 198.263 836.658 202.994C828.775 207.726 821.681 213.72 815.375 220.975C809.384 228.231 804.655 236.59 801.186 246.054C798.033 255.517 796.457 264.981 796.457 274.445C796.457 283.908 798.033 293.057 801.186 301.889C804.655 310.721 809.384 318.924 815.375 326.494C821.681 333.75 829.09 339.743 837.604 344.475C850.215 351.415 863.616 354.885 877.805 354.885C889.787 354.885 901.138 352.361 911.858 347.314C922.894 342.267 932.51 334.854 940.708 325.075V373.339C921.475 385.642 900.349 391.793 877.332 391.793C862.512 391.793 848.167 389.112 834.293 383.749C820.419 378.386 807.807 370.342 796.457 359.617C786.682 350.469 778.799 340.059 772.809 328.387C766.818 316.716 762.877 304.57 760.985 291.952C759.093 279.334 759.093 266.559 760.985 253.625C763.192 240.376 767.606 227.915 774.228 216.243C784.948 197.001 799.452 182.016 817.74 171.291C836.343 160.566 856.207 155.203 877.332 155.203C893.727 155.203 909.02 158.357 923.209 164.667C937.712 170.66 950.328 179.02 961.045 189.745C971.762 200.155 980.275 212.616 986.585 227.127C992.894 241.322 996.044 256.779 996.044 273.498V391.793ZM1054.56 192.584V273.498C1054.56 284.855 1056.6 295.423 1060.71 305.201C1065.11 314.98 1070.95 323.655 1078.21 331.226C1085.77 338.482 1094.44 344.317 1104.22 348.734C1113.99 352.835 1124.55 354.885 1135.91 354.885V391.793C1119.5 391.793 1104.06 388.796 1089.56 382.803C1075.37 376.493 1062.91 367.976 1052.19 357.251C1041.47 346.526 1032.95 334.065 1026.65 319.87C1020.66 305.359 1017.67 289.902 1017.67 273.498V23.6592H1054.56V155.676H1135.91V192.584H1054.56ZM1395.09 391.793H1358.21V273.498C1358.21 263.403 1356.47 253.94 1353.01 245.107C1349.85 236.275 1345.28 228.388 1339.3 221.448C1333.3 214.193 1326.05 208.199 1317.54 203.468C1309.34 198.421 1300.35 194.95 1290.58 193.058C1280.8 191.48 1271.19 191.638 1261.73 193.531C1252.58 195.108 1243.91 198.263 1235.72 202.994C1227.83 207.726 1220.74 213.72 1214.44 220.975C1208.44 228.231 1203.71 236.59 1200.25 246.054C1197.09 255.517 1195.52 264.981 1195.52 274.445C1195.52 283.908 1197.09 293.057 1200.25 301.889C1203.71 310.721 1208.44 318.924 1214.44 326.494C1220.74 333.75 1228.15 339.743 1236.66 344.475C1249.27 351.415 1262.68 354.885 1276.87 354.885C1288.84 354.885 1300.19 352.361 1310.92 347.314C1321.95 342.267 1331.57 334.854 1339.77 325.075V373.339C1320.53 385.642 1299.41 391.793 1276.39 391.793C1261.57 391.793 1247.22 389.112 1233.35 383.749C1219.48 378.386 1206.87 370.342 1195.52 359.617C1185.74 350.469 1177.86 340.059 1171.87 328.387C1165.87 316.716 1161.94 304.57 1160.05 291.952C1158.15 279.334 1158.15 266.559 1160.05 253.625C1162.25 240.376 1166.67 227.915 1173.29 216.243C1184.01 197.001 1198.51 182.016 1216.8 171.291C1235.4 160.566 1255.26 155.203 1276.39 155.203C1292.79 155.203 1308.08 158.357 1322.27 164.667C1336.77 170.66 1349.38 179.02 1360.11 189.745C1370.82 200.155 1379.34 212.616 1385.65 227.127C1391.94 241.322 1395.09 256.779 1395.09 273.498V391.793Z" fill="black"/>
<path d="M324.478 435.611C347.228 412.904 362.448 384.513 366.793 356.681C371.136 328.85 364.248 303.859 347.643 287.207L261.867 372.823L324.478 435.611Z" fill="#06D6A0"/>
<path d="M100.212 436.102C77.4624 413.395 62.2414 385.003 57.8972 357.172C53.5531 329.341 60.4414 304.35 77.0469 287.698L162.822 373.314L100.212 436.102Z" fill="#FFBE0B"/>
<path d="M171.343 193.033C194.092 215.739 206.893 246.557 206.931 278.707C206.969 310.857 194.239 341.705 171.544 364.465L85.7676 278.849L171.343 193.033Z" fill="#FF0075"/>
<path d="M85.7759 278.862C63.0267 256.155 50.2252 225.337 50.1876 193.187C50.15 161.037 62.8793 130.19 85.5754 107.429L171.351 193.045L85.7759 278.862Z" fill="#FF0075"/>
<path d="M253.347 192.542C230.598 215.248 217.796 246.067 217.759 278.216C217.721 310.366 230.45 341.215 253.146 363.975L338.922 278.358L253.347 192.542Z" fill="#0076FF"/>
<path d="M338.914 278.372C361.663 255.665 374.464 224.846 374.502 192.697C374.54 160.546 361.81 129.698 339.114 106.938L253.338 192.555L338.914 278.372Z" fill="#0076FF"/>
</svg>
