<?xml version="1.0" standalone="no"?>
<svg
  width="600"
  height="600"
  viewBox="0 0 600 600"
  xmlns="http://www.w3.org/2000/svg"
>
  <g transform="translate(300,300)">
    <path d="M62.8,-94.1C80.3,-86.6,92.4,-67.2,122.5,-43.6C152.6,-19.9,200.5,7.9,209,38.3C217.5,68.8,186.6,101.8,148.7,107.9C110.8,113.9,66,92.9,29.2,107.2C-7.5,121.5,-36.2,171.1,-60.1,176.8C-84,182.5,-103.2,144.3,-99.7,108.5C-96.1,72.8,-69.8,39.5,-93.4,1.8C-117,-36,-190.4,-78.2,-193.8,-96C-197.3,-113.7,-130.8,-106.9,-86.9,-102.3C-42.9,-97.7,-21.4,-95.4,0.6,-96.4C22.7,-97.3,45.4,-101.7,62.8,-94.1Z" fill="#9900ef" />
  </g>
</svg>
    