<svg id="Layer_1" data-name="Layer 1" xmlns="http://www.w3.org/2000/svg" xmlns:xlink="http://www.w3.org/1999/xlink" width="14400" height="14400" viewBox="0 0 14400 14400"><defs><style>.cls-1,.cls-4{fill:none;}.cls-2{clip-path:url(#clip-path);}.cls-3{fill:url(#radial-gradient);}.cls-4{stroke:#000;stroke-miterlimit:10;}</style><clipPath id="clip-path"><path class="cls-1" d="M6982.31,7164.77l-44.47-44.47v88.95Zm-43.47-42.05,42.06,42.05-42.06,42.06Zm43.47,42.06,44.47,44.47V7120.3Zm43.47,42.05-42.05-42.05,42.05-42.06Zm-43.47,46.89,44.47-44.47h-88.94Zm42.06-43.47-42.06,42.05-42.06-42.05Zm46.89,43.47-44.48-44.47h0v88.94Zm-43.48-42.06,42.06,42.06-42.06,42.06Zm43.48-46.89v88.95l44.47-44.48Zm1,2.42,42.05,42.05-42.05,42.06Zm43.47-46.89h-88.95l44.48,44.47Zm-2.42,1-42.05,42.06-42.06-42.06Zm-308.88,43.48h88.94l-44.47-44.48Zm2.41-1,42.06-42.06,42.06,42.06Zm86.53-87.95h-88.94l44.47,44.47Zm-2.41,1-42.06,42.06-42.06-42.06Zm2.41,87.95,44.47-44.48-44.47-44.47h0v88.95Zm1-86.53,42.06,42.05-42.06,42.06Zm43.47-46.89-44.47,44.47h88.94Zm0,1.42,42.06,42.05h-84.12Zm0-1.42-44.47-44.47-44.47,44.47Zm-2.41-1h-84.12l42.06-42.06Zm-86.53,1-44.47-44.47v88.94h0Zm-43.47-42.06,42,42.06-42,42.06Zm132.41,397.83-44.47,44.47h88.94Zm0,1.42,42.06,42.05h-84.12Zm44.47-45.89h-88.94l44.47,44.47Zm-2.41,1-42.06,42.06-42.06-42.06Zm-86.53-1-44.47,44.47,44.47,44.47h0v-88.94Zm-1,86.53-42.06-42.06,42.06-42.06Zm-43.47-131-44.47,44.47h88.94Zm0,1.41,42.06,42.06h-84.12Zm0-1.41h88.94l-44.47-44.47Zm2.41-1,42.06-42.06,42.06,42.06Zm86.53,1,44.47,44.47v-88.94Zm43.47,42.06-42.05-42.06,42.05-42.06Zm312.3-308.89-44.47,44.47h88.94Zm0,1.41,42.06,42.06h-84.12Zm0-1.41,44.47-44.47h-88.94Zm0-1.42-42.06-42h84.12Zm88.94,1.42-44.47-44.47h0v88.94h0Zm-43.47-42.06,42.06,42.06-42.06,42.06Zm43.47-46.88-44.47,44.47H7427Zm0,1.41,42.06,42.06H7340.5Zm0-1.42-44.47-44.47-44.47,44.47Zm-2.41-1H7296l42.06-42.05Zm-131-43.47v89l44.47-44.48Zm1,2.42,42.06,42.05-42.06,42.06Zm43.47,308.88V7120.3l-44.47,44.47Zm-1-2.41-42-42.06,42-42.06Zm-43.47-42.06-44.47-44.47v88.94Zm-43.47-42.06,42.06,42.06-42.06,42.06Zm87.94-2.41h0l-44.47-44.47-44.47,44.47h88.94Zm-44.47-43.06,42.06,42.06h-84.12Zm-44.47,43.06v-88.94l-44.47,44.47,44.47,44.47Zm-1-2.41-42.06-42.06,42.06-42.06Zm-43.47,46.88v-88.94l-44.47,44.47Zm-1-2.41-42.06-42.06,42.06-42.06Zm-43.47,46.88h88.94l-44.47-44.47Zm2.41-1,42.06-42.05,42.06,42.05ZM7516,7075.83l44.47,44.47v-88.94Zm43.47,42.06-42.06-42.06,42.06-42.06Zm-87.94-86.53v88.94l44.47-44.47Zm1,2.41,42.05,42.06-42.05,42.06Zm87.94,86.53H7471.5l44.47,44.47Zm-2.41,1L7516,7163.36l-42.06-42.06Zm-86.53-1L7427,7164.77l44.47,44.48V7120.3Zm-1,86.53-42.06-42.06,42.06-42.05Zm-43.47-131-44.48,44.47,44.48,44.47Zm-1,86.53L7384,7120.3l42.06-42.06Zm1-86.53,44.48-44.47h-88.95Zm0-1.41L7385,7032.36h84.11Zm-44.46,312.71,44.47-44.47h-88.95Zm0-1.41-42.06-42.06h84.11Zm0,1.41-44.47,44.47H7427Zm0,1.41,42.06,42.06H7340.5Zm-88.94-1.41,44.47,44.47h0v-88.94h0Zm43.47,42.06L7295,7387.13l42.05-42.06Zm-43.46,46.88,44.47-44.47h-88.95Zm0-1.41-42.06-42.06h84.11Zm0,1.41,44.48,44.48,44.47-44.48Zm2.42,1h84.11l-42.05,42.06Zm131,43.48V7431.6l-44.47,44.47Zm-1-2.42L7384,7476.07l42.06-42Zm-43.47-308.88v88.94l44.47-44.47Zm1,2.41,42,42.06-42,42.06Zm43.47,42.06,44.47,44.47v-88.94Zm43.47,42.06-42.06-42.06,42.06-42.06Zm-87.94,2.41h0l44.48,44.47,44.47-44.47h-88.94Zm44.47,43.06L7385,7299.19h84.11Zm44.47-43.06v88.94l44.47-44.47-44.47-44.47Zm1,2.41,42.05,42.06-42.05,42.06Zm43.47-46.88v88.94l44.47-44.47Zm1,2.41,42.06,42.06L7517,7340.25Zm43.47-46.88H7471.5l44.47,44.47Zm-2.41,1L7516,7252.3l-42.06-42.05ZM7160.2,7342.66l-44.47-44.47v88.94Zm-43.47-42.06,42.05,42.06-42.05,42.06Zm87.94,86.53v-88.94l-44.47,44.47Zm-1-2.41-42.06-42.06,42.06-42.06Zm-87.94-86.53h88.94l-44.47-44.47Zm2.41-1,42.06-42.06,42.06,42.06Zm86.53,1,44.47-44.47-44.47-44.48v88.95Zm1-86.53,42.06,42.06-42.06,42.05Zm43.47,131,44.47-44.47-44.47-44.47Zm1-86.53,42.06,42.06-42.06,42.06Zm-1,86.53-44.47,44.47h88.94Zm0,1.41,42.06,42.06h-84.12Zm-177.88-1.41h-88.95l44.48,44.47Zm-2.42,1-42.05,42.06-42.06-42.06Zm46.89,43.47v-88.94l-44.47,44.47Zm-1-2.41-42.06-42.06,42.06-42.06Zm1,91.35h88.94l-44.47-44.47Zm2.41-1,42.06-42,42.06,42Zm-2.41-87.94-44.47,44.47h88.94Zm0,1.42,42.06,42.05h-84.12Zm-88.94-1.42v88.95l44.47-44.48Zm1,2.42,42.05,42.05-42.05,42.06ZM6226.3,7120.3l-44.47-44.47v88.95Zm-43.47-42.05,42.05,42.05-42.05,42.06Zm43.47,42.05,44.47,44.48v-88.95Zm43.47,42.06-42.06-42.06,42.06-42.05Zm-43.47,46.89,44.47-44.47h-88.94Zm42.06-43.47-42.06,42.05-42.06-42.05Zm46.88,43.46-44.47-44.47v88.95Zm-43.47-42.05,42.06,42.05-42.06,42.06Zm43.47,42.06,44.47-44.48-44.47-44.47Zm1-86.53,42.06,42.05-42.06,42.06Zm43.47-46.89h-88.94l44.47,44.47Zm-2.41,1-42.06,42.06-42.06-42.06Zm-308.89,43.47h88.95l-44.48-44.47Zm2.42-1,42.05-42.05,42.06,42.05Zm42.06-43.47,44.47-44.47h-88.95Zm0-1.41-42.06-42.06h84.11Zm44.47,45.88,44.47-44.47-44.47-44.47h0v88.94Zm1-86.52,42.05,42.05-42.05,42.06Zm43.47-46.89-44.47,44.47h88.94Zm0,1.41,42.06,42.06h-84.12Zm0-1.41-44.48-44.47-44.47,44.47Zm-2.42-1H6095.3l42.05-42.06Zm-131-43.47v88.94l44.47-44.47Zm1,2.41,42.06,42.06L6049.41,7029Zm132.42,397.83-44.48,44.47h88.95Zm0,1.41,42.05,42.06h-84.11Zm44.47-45.88h-88.95l44.48,44.47Zm-2.42,1-42.05,42.06-42.06-42.06Zm-86.53-1-44.47,44.47,44.47,44.47h0v-88.94Zm-1,86.53-42.05-42.06,42.05-42.06Zm-43.46-131-44.48,44.47h88.95Zm0,1.41,42,42.06h-84.11Zm0-1.41h88.95l-44.47-44.47Zm2.42-1,42.06-42.06,42.05,42.06Zm86.53,1,44.47,44.47v-88.94Zm43.47,42.06-42.06-42.06,42.06-42.06Zm312.3-308.89-44.47,44.47h88.94Zm0,1.41,42.06,42.06h-84.12Zm0-1.41,44.47-44.47h-88.94Zm0-1.42-42.06-42.05h84.12Zm88.94,1.42-44.47-44.47h0v88.94h0Zm-43.47-42.06,42.06,42.06L6583.07,7029Zm43.47-46.89-44.47,44.48H6671Zm0,1.42,42.06,42.06h-84.12Zm0-1.42-44.47-44.47-44.47,44.47Zm-2.41-1H6540l42.06-42Zm-131-43.47v88.95l44.47-44.48Zm1,2.42,42.05,42L6494.13,6940Zm43.47,308.88v-88.94l-44.47,44.47Zm-1-2.41-42.06-42.06,42.06-42.06Zm-43.47-42.06-44.47-44.47v88.94Zm-43.47-42.06,42.05,42.06-42.05,42.06Zm87.94-2.41h0l-44.47-44.47-44.47,44.47h88.94Zm-44.47-43.06,42.06,42.06h-84.12Zm-44.47,43.06v-88.94l-44.47,44.47,44.47,44.47Zm-1-2.41-42.06-42.06,42.06-42.06Zm-43.48-42.06-44.47,44.47,44.47,44.47Zm-1,86.53-42.05-42.06,42.05-42.06Zm-43.47,46.88h88.95l-44.48-44.47Zm2.42-1,42.05-42.05,42.06,42.05ZM6760,7031.36l44.47,44.47v-88.94Zm43.47,42.06-42.06-42.06,42.06-42.06Zm-88-86.53v88.94l44.48-44.47Zm1,2.41,42.06,42.06-42.06,42.06Zm88,86.53h-89L6760,7120.3Zm-2.42,1L6760,7118.89l-42.05-42.06Zm-86.53-1L6671,7120.3l44.47,44.47v-88.94Zm-1,86.53-42-42.06,42-42.06Zm-43.47-131-44.47,44.47L6671,7120.3Zm-1,86.53L6628,7075.83l42.06-42.06Zm1-86.53,44.47-44.47h-88.94Zm0-1.42-42.06-42h84.12Zm-44.47,312.72,44.47-44.47h-88.94Zm0-1.41-42.06-42.06h84.12Zm0,1.41-44.47,44.47H6671Zm0,1.41,42.06,42.06h-84.12Zm-88.94-1.41,44.47,44.47h0v-88.94h0Zm43.47,42.06L6539,7342.66l42.06-42.06Zm-43.47,46.88,44.47-44.47h-88.94Zm0-1.41-42.06-42.06h84.12Zm0,1.41,44.47,44.47,44.47-44.47Zm2.41,1h84.12l-42.06,42.06Zm131,43.47v-88.94l-44.47,44.47Zm-1-2.41L6628,7431.6l42.05-42.06Zm-43.47-308.89v88.95l44.47-44.48Zm1,2.42,42.06,42.05-42.06,42.06Zm43.47,42.06,44.47,44.47v-88.95Zm43.47,42.05-42-42.05,42-42.06Zm-87.94,2.42h0l44.47,44.47,44.47-44.47h-88.94Zm44.47,43.05L6629,7254.72h84.12Zm44.47-43.05v88.94l44.48-44.47-44.48-44.47Zm1,2.41,42.06,42.06-42.06,42.06Zm43.48-46.89v88.95l44.47-44.48Zm1,2.42,42.05,42.05L6761,7295.77Zm43.47-46.89h-89l44.48,44.47Zm-2.42,1L6760,7207.83l-42.06-42.06Zm-397.82,132.42-44.48-44.47v88.94Zm-43.48-42.06,42.06,42.06-42.06,42.06Zm87.95,86.53v-88.94l-44.47,44.47Zm-1-2.41-42.06-42.06,42.06-42.06Zm-87.95-86.53h88.95l-44.47-44.48Zm2.42-1,42.06-42.06,42.05,42.06Zm86.53,1,44.47-44.47-44.47-44.48v88.95Zm1-86.53,42.05,42.06-42.05,42.05Zm43.47,131,44.47-44.47-44.47-44.48Zm1-86.53,42.06,42.06-42.06,42.05Zm-1,86.53-44.47,44.47h88.94Zm0,1.41,42.06,42.06h-84.12Zm-177.89-1.41H6226.3l44.47,44.47Zm-2.41,1-42.06,42.06-42.06-42.06Zm46.88,43.47v-88.94l-44.47,44.47Zm-1-2.41-42.05-42.06,42.05-42.06Zm1,91.35h88.95l-44.48-44.47Zm2.42-1,42.05-42.05,42.06,42.05Zm-2.42-87.94-44.47,44.47h88.95Zm0,1.41,42.06,42.06h-84.11Zm-88.94-1.41v88.94l44.47-44.47Zm1,2.41,42.06,42.06-42.06,42.06ZM8005.16,7120.3v88.94l44.47-44.47Zm1,2.42,42.05,42.05-42.05,42.06Zm43.47,42.05,44.47,44.47V7120.3Zm43.47,42.06L8051,7164.77l42.06-42.05Zm-87.94,2.41h0l44.47,44.48,44.47-44.48h-88.94Zm44.47,43.06-42.06-42.06h84.12Zm44.47-43.06v88.95l44.47-44.48-44.47-44.47Zm1,2.42,42.06,42.05-42.06,42.06Zm43.47,42.06,44.47-44.48-44.47-44.47Zm1-86.53,42.06,42.05-42.06,42.06ZM8183,7120.3H8094.1l44.47,44.47Zm-2.41,1-42.06,42.06-42.06-42.06Zm-308.89,43.47h88.95l-44.48-44.47Zm2.42-1,42.05-42.05,42.06,42.05Zm42.06-43.47,44.47-44.47h-88.95Zm0-1.41-42.06-42.06h84.11Zm44.47-43.06v88.94h0l44.47-44.47-44.47-44.47Zm1,2.41,42.05,42.06-42.05,42.06Zm43.46-46.88-44.47,44.47h88.95Zm0,1.41,42.06,42.06H7963.1Zm-133.41-45.88v88.94l44.47-44.47Zm1,2.41,42.06,42.06-42.06,42.06Zm132.42,397.83-44.48,44.47h88.95Zm0,1.41,42.05,42.06H7963.1Zm0-1.41,44.48-44.47h-88.95Zm0-1.41-42-42.06h84.11Zm-88.94,1.41,44.47,44.47h0v-88.94h0Zm43.47,42.06-42.05-42.06,42.05-42.06Zm-43.47-131-44.47,44.47h88.94Zm-42.06,43.47,42.06-42.06,42.06,42.06Zm86.54-87.94-44.48,44.47h88.95Zm0,1.41,42.05,42.06h-84.11Zm88.94,87.53v-88.94l-44.47,44.47Zm-1-2.41-42.06-42.06,42.06-42.06Zm-354.77-86.53,44.47,44.47v-88.94Zm43.47,42.06-42.06-42.06,42.06-42.06Zm-43.47-42.06-44.48-44.47v88.94Zm-43.48-42.06,42.06,42.06-42.06,42.06Zm43.47-46.89-44.47,44.48h88.95Zm-42.05,43.48,42.05-42.06,42.06,42.06Zm-2.42,1V7120.3l-44.47,44.48Zm-1-2.42-42.05-42.05,42.05-42.06Zm-43.47,46.89v-88.95l-44.47,44.48Zm-1-2.42-42.05-42.05,42.05-42.06Zm-43.47,46.89h88.94l-44.47-44.47Zm2.42-1,42.05-42.06,42.06,42.06Zm308.88-43.47H7782.8l44.47,44.47Zm-2.41,1-42.06,42.05-42.06-42.05Zm-86.53,87.94h88.94l-44.47-44.47Zm2.41-1,42.06-42.06,42.06,42.06Zm-2.41-87.94-44.47,44.47,44.47,44.47h0v-88.94Zm-1,86.53-42.06-42.06,42.06-42.06Zm-43.47,46.88,44.47-44.47h-88.95Zm0-1.41-42.06-42.06h84.11Zm0,1.41,44.47,44.47,44.47-44.47Zm2.41,1h84.12l-42.06,42.06Zm131,43.47v-88.94l-44.47,44.47Zm-1-2.41-42.06-42.06,42.06-42.06Zm-176.88-353.36h88.94l-44.47-44.47Zm2.41-1,42.06-42.06,42.06,42.06Zm86.53-87.94v88.94h0l44.47-44.47Zm1,2.41,42.06,42.06-42.06,42.06Zm-1,86.53,44.47,44.47,44.47-44.47Zm86.53,1-42.06,42.06-42.06-42.06Zm-42.06,43.47h-88.94l44.47,44.47Zm-2.41,1-42.06,42.06-42.06-42.06Zm-86.53-1-44.47-44.47v88.94Zm-43.47-42.06,42.05,42.06-42.05,42.06Zm-89.95-91.35v88.94l44.47-44.47Zm1,2.41,42.06,42.06-42.06,42.06Z"/></clipPath><radialGradient id="radial-gradient" cx="7313.87" cy="7382.09" r="135.59" gradientTransform="translate(38.8 49.57)" gradientUnits="userSpaceOnUse"><stop offset="0" stop-color="#fff"/><stop offset="0.3" stop-color="#fff" stop-opacity="0.99"/><stop offset="0.41" stop-color="#fff" stop-opacity="0.97"/><stop offset="0.49" stop-color="#fff" stop-opacity="0.92"/><stop offset="0.56" stop-color="#fff" stop-opacity="0.85"/><stop offset="0.61" stop-color="#fff" stop-opacity="0.77"/><stop offset="0.66" stop-color="#fff" stop-opacity="0.66"/><stop offset="0.7" stop-color="#fff" stop-opacity="0.54"/><stop offset="0.73" stop-color="#fff" stop-opacity="0.42"/><stop offset="0.74" stop-color="#fff" stop-opacity="0.34"/><stop offset="0.75" stop-color="#fff" stop-opacity="0.24"/><stop offset="0.75" stop-color="#fff" stop-opacity="0.15"/><stop offset="0.76" stop-color="#fff" stop-opacity="0.08"/><stop offset="0.78" stop-color="#fff" stop-opacity="0.03"/><stop offset="0.79" stop-color="#fff" stop-opacity="0.01"/><stop offset="0.84" stop-color="#fff" stop-opacity="0"/></radialGradient></defs><title>mesh-mask_experiment-2</title><g class="cls-2"><ellipse class="cls-3" cx="7352.68" cy="7431.66" rx="140.9" ry="130.06" transform="translate(-1318.93 1592.6) rotate(-11.35)"/></g><path class="cls-4" d="M8463,7142.75c0,63.61-79.1,188-170.32,242-157.84,93.4-343.37,93.4-686.3,133.41-178.2,20.79-282.91-242.38-488.19-242.38-344.47,0-636.17,296.77-889.43,242.38-356-76.44-407.31-216-407.31-350.94,0-132,120.25-187.59,471.4-202.74,275.34-11.89,555.47-6.47,868.81-108.56,243.34-79.28,323.83,9.57,534.66,41C8168.06,6967.39,8463,6983.17,8463,7142.75Z"/></svg>